<svg width="512" height="512" viewBox="0 0 512 512" fill="none" xmlns="http://www.w3.org/2000/svg">
<rect width="512" height="512" rx="19" fill="#14213D"/>
<path d="M163.192 321.229C156.092 321.229 148.651 319.931 140.868 317.337C133.086 314.743 126.601 310.374 121.412 304.23C120.32 302.865 119.842 301.431 119.979 299.929C120.252 298.291 121.139 296.926 122.641 295.833C124.007 294.878 125.44 294.536 126.942 294.809C128.58 295.082 129.877 295.833 130.833 297.062C134.793 301.704 139.571 304.981 145.169 306.893C150.904 308.667 157.116 309.555 163.806 309.555C175.275 309.555 183.399 307.507 188.177 303.411C192.956 299.315 195.345 294.536 195.345 289.075C195.345 278.289 184.9 271.394 164.011 268.39C150.357 266.479 140.254 262.792 133.7 257.331C127.147 251.87 123.87 245.521 123.87 238.285C123.87 228.045 127.556 220.262 134.929 214.937C142.439 209.476 151.928 206.745 163.396 206.745C172.681 206.745 180.531 208.452 186.948 211.865C193.365 215.142 198.554 219.579 202.513 225.177C203.605 226.543 203.947 228.045 203.537 229.683C203.264 231.185 202.24 232.414 200.465 233.369C199.1 234.052 197.666 234.257 196.164 233.984C194.663 233.711 193.365 232.891 192.273 231.526C185.31 222.651 175.548 218.214 162.987 218.214C154.385 218.214 147.695 220.057 142.916 223.744C138.138 227.43 135.748 231.867 135.748 237.056C135.748 242.381 138.069 246.75 142.712 250.163C147.354 253.44 155.273 255.897 166.468 257.536C176.708 258.901 184.764 261.222 190.635 264.499C196.642 267.776 200.875 271.599 203.332 275.968C205.927 280.2 207.224 284.774 207.224 289.689C207.224 296.106 205.176 301.704 201.08 306.483C196.984 311.262 191.591 314.948 184.9 317.542C178.21 320 170.974 321.229 163.192 321.229Z" fill="black"/>
<path d="M163.192 321.229C156.092 321.229 148.651 319.931 140.868 317.337C133.086 314.743 126.601 310.374 121.412 304.23C120.32 302.865 119.842 301.431 119.979 299.929C120.252 298.291 121.139 296.926 122.641 295.833C124.007 294.878 125.44 294.536 126.942 294.809C128.58 295.082 129.877 295.833 130.833 297.062C134.793 301.704 139.571 304.981 145.169 306.893C150.904 308.667 157.116 309.555 163.806 309.555C175.275 309.555 183.399 307.507 188.177 303.411C192.956 299.315 195.345 294.536 195.345 289.075C195.345 278.289 184.9 271.394 164.011 268.39C150.357 266.479 140.254 262.792 133.7 257.331C127.147 251.87 123.87 245.521 123.87 238.285C123.87 228.045 127.556 220.262 134.929 214.937C142.439 209.476 151.928 206.745 163.396 206.745C172.681 206.745 180.531 208.452 186.948 211.865C193.365 215.142 198.554 219.579 202.513 225.177C203.605 226.543 203.947 228.045 203.537 229.683C203.264 231.185 202.24 232.414 200.465 233.369C199.1 234.052 197.666 234.257 196.164 233.984C194.663 233.711 193.365 232.891 192.273 231.526C185.31 222.651 175.548 218.214 162.987 218.214C154.385 218.214 147.695 220.057 142.916 223.744C138.138 227.43 135.748 231.867 135.748 237.056C135.748 242.381 138.069 246.75 142.712 250.163C147.354 253.44 155.273 255.897 166.468 257.536C176.708 258.901 184.764 261.222 190.635 264.499C196.642 267.776 200.875 271.599 203.332 275.968C205.927 280.2 207.224 284.774 207.224 289.689C207.224 296.106 205.176 301.704 201.08 306.483C196.984 311.262 191.591 314.948 184.9 317.542C178.21 320 170.974 321.229 163.192 321.229Z" fill="white"/>
<path d="M241.043 320C239.268 320 237.766 319.454 236.537 318.361C235.445 317.133 234.899 315.631 234.899 313.856V214.118C234.899 212.207 235.445 210.705 236.537 209.613C237.766 208.52 239.268 207.974 241.043 207.974C242.954 207.974 244.456 208.52 245.548 209.613C246.641 210.705 247.187 212.207 247.187 214.118V222.105C251.01 217.19 255.652 213.367 261.113 210.637C266.711 207.906 272.787 206.541 279.34 206.541C287.396 206.541 294.564 208.52 300.844 212.48C307.125 216.303 312.04 221.627 315.59 228.454C319.276 221.627 324.396 216.303 330.95 212.48C337.504 208.52 344.876 206.541 353.068 206.541C361.397 206.541 368.701 208.589 374.982 212.685C381.263 216.781 386.178 222.447 389.728 229.683C393.414 236.919 395.257 245.248 395.257 254.669V313.856C395.257 315.631 394.711 317.133 393.619 318.361C392.527 319.454 391.025 320 389.113 320C387.338 320 385.836 319.454 384.608 318.361C383.515 317.133 382.969 315.631 382.969 313.856V254.669C382.969 244.155 380.17 235.554 374.572 228.864C369.111 222.174 361.943 218.829 353.068 218.829C343.648 218.829 335.933 221.969 329.926 228.249C324.055 234.393 321.256 242.722 321.529 253.235C321.529 253.645 321.529 254.122 321.529 254.669V313.856C321.529 315.631 320.983 317.133 319.891 318.361C318.799 319.454 317.297 320 315.385 320C313.61 320 312.108 319.454 310.88 318.361C309.787 317.133 309.241 315.631 309.241 313.856V254.669C309.241 244.155 306.442 235.554 300.844 228.864C295.383 222.174 288.215 218.829 279.34 218.829C269.92 218.829 262.205 221.832 256.198 227.84C250.191 233.847 247.187 241.63 247.187 251.187V313.856C247.187 315.631 246.641 317.133 245.548 318.361C244.456 319.454 242.954 320 241.043 320Z" fill="black"/>
<path d="M241.043 320C239.268 320 237.766 319.454 236.537 318.361C235.445 317.133 234.899 315.631 234.899 313.856V214.118C234.899 212.207 235.445 210.705 236.537 209.613C237.766 208.52 239.268 207.974 241.043 207.974C242.954 207.974 244.456 208.52 245.548 209.613C246.641 210.705 247.187 212.207 247.187 214.118V222.105C251.01 217.19 255.652 213.367 261.113 210.637C266.711 207.906 272.787 206.541 279.34 206.541C287.396 206.541 294.564 208.52 300.844 212.48C307.125 216.303 312.04 221.627 315.59 228.454C319.276 221.627 324.396 216.303 330.95 212.48C337.504 208.52 344.876 206.541 353.068 206.541C361.397 206.541 368.701 208.589 374.982 212.685C381.263 216.781 386.178 222.447 389.728 229.683C393.414 236.919 395.257 245.248 395.257 254.669V313.856C395.257 315.631 394.711 317.133 393.619 318.361C392.527 319.454 391.025 320 389.113 320C387.338 320 385.836 319.454 384.608 318.361C383.515 317.133 382.969 315.631 382.969 313.856V254.669C382.969 244.155 380.17 235.554 374.572 228.864C369.111 222.174 361.943 218.829 353.068 218.829C343.648 218.829 335.933 221.969 329.926 228.249C324.055 234.393 321.256 242.722 321.529 253.235C321.529 253.645 321.529 254.122 321.529 254.669V313.856C321.529 315.631 320.983 317.133 319.891 318.361C318.799 319.454 317.297 320 315.385 320C313.61 320 312.108 319.454 310.88 318.361C309.787 317.133 309.241 315.631 309.241 313.856V254.669C309.241 244.155 306.442 235.554 300.844 228.864C295.383 222.174 288.215 218.829 279.34 218.829C269.92 218.829 262.205 221.832 256.198 227.84C250.191 233.847 247.187 241.63 247.187 251.187V313.856C247.187 315.631 246.641 317.133 245.548 318.361C244.456 319.454 242.954 320 241.043 320Z" fill="white"/>
</svg>
