<svg width="417" height="330" viewBox="0 0 417 330" fill="none" xmlns="http://www.w3.org/2000/svg">
<rect x="2" y="2" width="412.618" height="326" rx="14" fill="#14213D" stroke="white" stroke-width="4"/>
<path d="M191.465 138.599L200.181 150.348V223.875L211.552 234.866H244.904L254.569 244.53V292.854" stroke="#355A7C" stroke-width="2"/>
<circle cx="374.057" cy="45.3575" r="30.3401" fill="#C4C4C4"/>
<circle cx="374.057" cy="45.3575" r="24.8237" fill="white"/>
<circle cx="44.1262" cy="45.3575" r="30.3401" fill="#C4C4C4"/>
<circle cx="44.1259" cy="45.3575" r="24.8237" fill="white"/>
<circle cx="97.8511" cy="71.3099" r="20.001" fill="#355A7C"/>
<circle cx="97.8508" cy="71.31" r="11.4235" fill="white"/>
<circle cx="369.234" cy="228.94" r="16.7176" fill="#355A7C"/>
<circle cx="369.234" cy="228.94" r="9.54827" fill="white"/>
<rect x="30.7593" y="211.363" width="69.4879" height="12.0671" rx="2" fill="white"/>
<rect x="113.366" y="220.628" width="69.4879" height="13.6044" rx="2" fill="white"/>
<rect x="30.7593" y="196.872" width="27.0682" height="12.0671" rx="2" fill="white"/>
<rect x="132.972" y="82.7334" width="27.0677" height="52.5198" fill="#355A7C"/>
<rect x="270.095" y="82.7334" width="27.0677" height="52.5198" fill="#355A7C"/>
<rect x="295.936" y="153.082" width="27.0677" height="52.5198" fill="#355A7C"/>
<rect x="383.802" y="151.466" width="27.0677" height="52.5198" transform="rotate(90 383.802 151.466)" fill="#355A7C"/>
<rect x="383.802" y="182.17" width="27.0677" height="52.5198" transform="rotate(90 383.802 182.17)" fill="#355A7C"/>
<rect x="132.972" y="153.082" width="27.0677" height="52.5198" fill="#355A7C"/>
<rect x="262.386" y="174.142" width="19.6613" height="19.6907" rx="2" fill="white"/>
<rect x="223.063" y="159.651" width="25.452" height="19.6907" rx="2" fill="white"/>
<rect x="223.063" y="191.672" width="25.452" height="19.6907" rx="2" fill="white"/>
<rect x="132.972" y="214.26" width="32.4074" height="25.6287" fill="#355A7C"/>
<rect x="36.416" y="108.185" width="55.3478" height="23.8359" fill="#355A7C"/>
<rect x="36.416" y="141.164" width="55.3478" height="23.8359" fill="#355A7C"/>
<rect x="243.028" y="165" width="21.2433" height="40.6019" fill="#355A7C"/>
<path d="M136.85 90.4413L125.382 104.945V124.171L101.771 149.131V166.67L118.299 185.896V195.34H136.85" stroke="#355A7C" stroke-width="2"/>
<path d="M118.634 186.184H94.3921M153.65 128.08L118.634 159.441" stroke="#355A7C" stroke-width="2"/>
<rect x="30.7593" y="179.342" width="69.4879" height="12.0671" rx="2" fill="white"/>
<rect x="51.4785" y="174.142" width="27.0677" height="52.5198" fill="#355A7C"/>
<circle cx="118.726" cy="159.339" r="7.29731" fill="white"/>
<path d="M237.959 132.747V146.28L233.706 152.467H209.345V221.297L217.079 227.097H275.854V271.565L289.581 285.292" stroke="#355A7C" stroke-width="2"/>
<rect x="177.242" y="147.032" width="63.4554" height="7.07913" rx="2" transform="rotate(-90 177.242 147.032)" fill="white"/>
<rect x="185.504" y="147.032" width="63.4554" height="7.07913" rx="2" transform="rotate(-90 185.504 147.032)" fill="white"/>
<rect x="193.766" y="147.032" width="63.4554" height="7.07913" rx="2" transform="rotate(-90 193.766 147.032)" fill="white"/>
<rect x="202.028" y="147.032" width="63.4554" height="7.07913" rx="2" transform="rotate(-90 202.028 147.032)" fill="white"/>
<rect x="210.29" y="147.032" width="63.4554" height="7.07913" rx="2" transform="rotate(-90 210.29 147.032)" fill="white"/>
<rect x="218.551" y="147.032" width="63.4554" height="7.07913" rx="2" transform="rotate(-90 218.551 147.032)" fill="white"/>
<rect x="226.813" y="147.032" width="63.4554" height="7.07913" rx="2" transform="rotate(-90 226.813 147.032)" fill="white"/>
<rect x="235.075" y="147.032" width="63.4554" height="7.07913" rx="2" transform="rotate(-90 235.075 147.032)" fill="white"/>
<rect x="243.338" y="147.032" width="63.4554" height="7.07913" rx="2" transform="rotate(-90 243.338 147.032)" fill="white"/>
<rect x="251.6" y="147.032" width="63.4554" height="7.07913" rx="2" transform="rotate(-90 251.6 147.032)" fill="white"/>
<rect x="175.159" y="91.3108" width="85.0723" height="49.8533" fill="#355A7C"/>
<path d="M182.747 133.672V150.727L192.033 160.012V231.834L209.941 249.742V281.104" stroke="#355A7C" stroke-width="2"/>
<circle cx="34.2093" cy="292.708" r="17.2693" fill="white"/>
<circle cx="77.9324" cy="292.708" r="17.2693" fill="white"/>
<circle cx="121.656" cy="292.708" r="17.2693" fill="white"/>
<circle cx="165.379" cy="292.708" r="17.2693" fill="white"/>
<circle cx="209.103" cy="292.708" r="17.2693" fill="white"/>
<circle cx="252.826" cy="292.708" r="17.2693" fill="white"/>
<circle cx="296.549" cy="292.708" r="17.2693" fill="white"/>
<circle cx="340.273" cy="292.708" r="17.2693" fill="white"/>
<circle cx="383.996" cy="292.708" r="17.2693" fill="white"/>
<path d="M196.578 161.04C196.989 160.163 198.282 160.325 198.465 161.276L201.31 176.091C201.392 176.516 201.738 176.841 202.168 176.895L217.137 178.767C218.098 178.887 218.344 180.167 217.495 180.635L204.285 187.919C203.905 188.128 203.704 188.557 203.786 188.983L206.63 203.798C206.813 204.749 205.672 205.378 204.965 204.716L193.955 194.403C193.639 194.107 193.168 194.048 192.789 194.257L179.578 201.54C178.73 202.008 177.779 201.117 178.19 200.24L184.596 186.583C184.78 186.19 184.691 185.724 184.375 185.428L173.365 175.115C172.658 174.453 173.212 173.273 174.173 173.393L189.142 175.265C189.572 175.319 189.987 175.09 190.171 174.698L196.578 161.04Z" fill="white"/>
<path d="M342.125 204.789V252.999L362.133 273.006V308.922L355.263 315.792H41.7776L29.5444 328.025" stroke="#355A7C" stroke-width="2"/>
<path d="M283.792 68.3545L260.892 45.4546H178.694L155.794 68.3545H133.377L110.236 91.4953V114.636L101.559 123.314H84.2026" stroke="#355A7C" stroke-width="2"/>
<circle cx="283.629" cy="68.4005" r="7.29731" fill="white"/>
</svg>
