<svg width="628" height="330" viewBox="0 0 628 330" fill="none" xmlns="http://www.w3.org/2000/svg">
<path d="M0.0629883 17.567L0.0629883 312.433C0.0629883 322.135 7.92795 330 17.6299 330H396.782C406.484 330 414.349 322.135 414.349 312.433V17.567C414.349 7.86505 406.484 3.05176e-05 396.782 3.05176e-05H17.6299C7.92795 3.05176e-05 0.0629883 7.86505 0.0629883 17.567Z" fill="#14213D"/>
<path d="M0 102.627L0 126.913H66.4928V102.627H0Z" fill="white"/>
<path d="M415 62V76L627 76V62L415 62Z" fill="#C4C4C4"/>
<path d="M414 257V271H626V257H414Z" fill="#C4C4C4"/>
<path d="M415 192V206H627V192H415Z" fill="#C4C4C4"/>
<path d="M416 127V141H628V127L416 127Z" fill="#C4C4C4"/>
<path d="M0 154.603L0 178.888H66.4928V154.603H0Z" fill="white"/>
<path d="M0 211.031L0 235.317H66.4928V211.031H0Z" fill="white"/>
<path d="M97.7319 102.46V127.54H126.494V102.46H97.7319Z" fill="white"/>
<path d="M154.517 102.46V127.54H183.279V102.46H154.517Z" fill="white"/>
<path d="M203.091 102.46V127.54H231.853V102.46H203.091Z" fill="white"/>
<path d="M254.515 102.459V127.54H283.277V102.459H254.515Z" fill="white"/>
<path d="M307.372 101.031V126.112H336.134V101.031H307.372Z" fill="white"/>
<path d="M97.7319 154.603V179.683H126.494V154.603H97.7319Z" fill="white"/>
<path d="M153.447 154.603V179.683H182.209V154.603H153.447Z" fill="white"/>
<path d="M202.021 154.603V179.683H230.783V154.603H202.021Z" fill="white"/>
<path d="M253.444 154.602V179.683H282.206V154.602H253.444Z" fill="white"/>
<path d="M306.301 153.174V178.255H335.063V153.174H306.301Z" fill="white"/>
<path d="M97.7319 211.031V236.112H126.494V211.031H97.7319Z" fill="white"/>
<path d="M154.873 211.031V236.112H183.635V211.031H154.873Z" fill="white"/>
<path d="M203.445 211.031V236.112H232.208V211.031H203.445Z" fill="white"/>
<path d="M254.877 211.031V236.111H283.639V211.031H254.877Z" fill="white"/>
<path d="M307.734 209.603V234.683H336.496V209.603H307.734Z" fill="white"/>
<path d="M97.7319 264.62V330H126.494V264.62H97.7319Z" fill="white"/>
<path d="M154.873 264.62V330H183.635V264.62H154.873Z" fill="white"/>
<path d="M203.445 264.62V330H232.208V264.62H203.445Z" fill="white"/>
<path d="M254.877 264.62V330H283.639V264.62H254.877Z" fill="white"/>
<path d="M307.734 264.62V330H336.496V264.62H307.734Z" fill="white"/>
<path d="M97.7319 0.00037384V68.8557H126.494V0.00037384H97.7319Z" fill="white"/>
<path d="M154.873 0.00037384V68.8557H183.635V0.00037384H154.873Z" fill="white"/>
<path d="M203.445 0.00037384V68.8557H232.208V0.00037384H203.445Z" fill="white"/>
<path d="M254.877 -4.57764e-05V68.8555H283.639V-4.57764e-05H254.877Z" fill="white"/>
<path d="M307.734 0.0001297V68.8555H336.496V0.0001297H307.734Z" fill="white"/>
</svg>
