<svg width="628" height="330" viewBox="0 0 628 330" fill="none" xmlns="http://www.w3.org/2000/svg">
<path d="M2.06299 312.433L2.06299 17.567C2.06299 8.9696 9.03253 2.00003 17.6299 2.00003H396.782C405.379 2.00003 412.349 8.9696 412.349 17.567V312.433C412.349 321.031 405.379 328 396.782 328H17.6299C9.03251 328 2.06299 321.031 2.06299 312.433Z" fill="#14213D" stroke="white" stroke-width="4"/>
<path d="M2 124.913L2 104.627H64.4928V124.913H2Z" fill="white" stroke="white" stroke-width="4"/>
<path d="M417 74V64L625 64V74L417 74Z" fill="#C4C4C4" stroke="white" stroke-width="4"/>
<path d="M416 269V259H624V269H416Z" fill="#C4C4C4" stroke="white" stroke-width="4"/>
<path d="M417 204V194H625V204H417Z" fill="#C4C4C4" stroke="white" stroke-width="4"/>
<path d="M418 139V129H626V139H418Z" fill="#C4C4C4" stroke="white" stroke-width="4"/>
<path d="M2 176.888L2 156.603H64.4928V176.888H2Z" fill="white" stroke="white" stroke-width="4"/>
<path d="M2 233.317L2 213.031H64.4928V233.317H2Z" fill="white" stroke="white" stroke-width="4"/>
<path d="M99.7319 125.54V104.46H124.494V125.54H99.7319Z" fill="white" stroke="white" stroke-width="4"/>
<path d="M156.517 125.54V104.46H181.279V125.54H156.517Z" fill="white" stroke="white" stroke-width="4"/>
<path d="M205.091 125.54V104.46H229.853V125.54H205.091Z" fill="white" stroke="white" stroke-width="4"/>
<path d="M256.515 125.54V104.459H281.277V125.54H256.515Z" fill="white" stroke="white" stroke-width="4"/>
<path d="M309.372 124.112V103.031H334.134V124.112H309.372Z" fill="white" stroke="white" stroke-width="4"/>
<path d="M99.7319 177.683V156.603H124.494V177.683H99.7319Z" fill="white" stroke="white" stroke-width="4"/>
<path d="M155.447 177.683V156.603H180.209V177.683H155.447Z" fill="white" stroke="white" stroke-width="4"/>
<path d="M204.021 177.683V156.603H228.783V177.683H204.021Z" fill="white" stroke="white" stroke-width="4"/>
<path d="M255.444 177.683V156.602H280.206V177.683H255.444Z" fill="white" stroke="white" stroke-width="4"/>
<path d="M308.301 176.255V155.174H333.063V176.255H308.301Z" fill="white" stroke="white" stroke-width="4"/>
<path d="M99.7319 234.112V213.031H124.494V234.112H99.7319Z" fill="white" stroke="white" stroke-width="4"/>
<path d="M156.873 234.112V213.031H181.635V234.112H156.873Z" fill="white" stroke="white" stroke-width="4"/>
<path d="M205.445 234.112V213.031H230.208V234.112H205.445Z" fill="white" stroke="white" stroke-width="4"/>
<path d="M256.877 234.111V213.031H281.639V234.111H256.877Z" fill="white" stroke="white" stroke-width="4"/>
<path d="M309.734 232.683V211.603H334.496V232.683H309.734Z" fill="white" stroke="white" stroke-width="4"/>
<path d="M99.7319 328V266.62H124.494V328H99.7319Z" fill="white" stroke="white" stroke-width="4"/>
<path d="M156.873 328V266.62H181.635V328H156.873Z" fill="white" stroke="white" stroke-width="4"/>
<path d="M205.445 328V266.62H230.208V328H205.445Z" fill="white" stroke="white" stroke-width="4"/>
<path d="M256.877 328V266.62H281.639V328H256.877Z" fill="white" stroke="white" stroke-width="4"/>
<path d="M309.734 328V266.62H334.496V328H309.734Z" fill="white" stroke="white" stroke-width="4"/>
<path d="M99.7319 66.8557V2.00037H124.494V66.8557H99.7319Z" fill="white" stroke="white" stroke-width="4"/>
<path d="M156.873 66.8557V2.00037H181.635V66.8557H156.873Z" fill="white" stroke="white" stroke-width="4"/>
<path d="M205.445 66.8557V2.00037H230.208V66.8557H205.445Z" fill="white" stroke="white" stroke-width="4"/>
<path d="M256.877 66.8555V1.99995H281.639V66.8555H256.877Z" fill="white" stroke="white" stroke-width="4"/>
<path d="M309.734 66.8555V2.00013H334.496V66.8555H309.734Z" fill="white" stroke="white" stroke-width="4"/>
</svg>
