<svg width="703" height="330" viewBox="0 0 703 330" fill="none" xmlns="http://www.w3.org/2000/svg">
<rect x="2" y="2" width="698.128" height="326" fill="#14213D" stroke="white" stroke-width="4"/>
<path d="M328.715 294.867C329.309 244.457 330.142 143.28 328.715 141.854C327.289 140.427 298.62 111.759 284.464 97.6032V61.1333" stroke="#697887" stroke-width="4"/>
<path d="M359.841 305.425V264.758L349.309 250.613V63.1914" stroke="#697887" stroke-width="4"/>
<circle cx="22.8193" cy="22.8193" r="19.3085" fill="#C4C4C4"/>
<circle cx="22.8194" cy="22.8194" r="15.7979" fill="white"/>
<circle cx="22.8193" cy="303.67" r="19.3085" fill="#C4C4C4"/>
<circle cx="22.8194" cy="303.67" r="15.7979" fill="white"/>
<circle cx="672.287" cy="303.67" r="19.3085" fill="#C4C4C4"/>
<circle cx="672.287" cy="303.67" r="15.7979" fill="white"/>
<circle cx="672.287" cy="26.3298" r="19.3085" fill="#C4C4C4"/>
<circle cx="672.287" cy="26.3296" r="15.7979" fill="white"/>
<rect x="287.873" y="280.851" width="17.5532" height="38.617" rx="8.7766" fill="white"/>
<rect x="319.468" y="280.851" width="17.5532" height="38.617" rx="8.7766" fill="white"/>
<rect x="351.064" y="280.851" width="17.5532" height="38.617" rx="8.7766" fill="white"/>
<rect x="382.66" y="280.851" width="17.5532" height="38.617" rx="8.7766" fill="white"/>
<path d="M391.436 63.1914L444.096 114.096" stroke="#697887" stroke-width="4"/>
<circle cx="554.681" cy="157.979" r="136.915" fill="white"/>
<circle cx="554.681" cy="157.979" r="115.851" fill="#14213D"/>
<circle cx="554.681" cy="157.979" r="91.2766" fill="white"/>
<path d="M275.585 56.1702L247.5 84.2553" stroke="#697887" stroke-width="4"/>
<circle cx="147.447" cy="157.979" r="136.915" fill="white"/>
<circle cx="147.447" cy="157.979" r="115.851" fill="#14213D"/>
<circle cx="147.447" cy="157.979" r="91.2766" fill="white"/>
<rect x="431.809" y="7.02124" width="70.2128" height="168.511" rx="18" transform="rotate(90 431.809 7.02124)" fill="#355A7C"/>
</svg>
