<?xml version="1.0"?>
<svg xmlns="http://www.w3.org/2000/svg" xmlns:xlink="http://www.w3.org/1999/xlink" xmlns:svgjs="http://svgjs.com/svgjs" version="1.1" width="512" height="512" x="0" y="0" viewBox="0 0 24 24" style="enable-background:new 0 0 512 512" xml:space="preserve" class=""><g><path xmlns="http://www.w3.org/2000/svg" d="m22 13c-.837 0-1.554.518-1.851 1.25h-2.149v-4.5h2.149c.297.732 1.014 1.25 1.851 1.25 1.103 0 2-.897 2-2s-.897-2-2-2c-.837 0-1.554.518-1.851 1.25h-2.255c-.273-1.049-1.094-1.871-2.143-2.143v-2.256c.731-.297 1.249-1.014 1.249-1.851 0-1.103-.897-2-2-2s-2 .897-2 2c0 .837.518 1.554 1.25 1.851v2.149h-4.5v-2.149c.732-.297 1.25-1.014 1.25-1.851 0-1.103-.897-2-2-2s-2 .897-2 2c0 .837.518 1.554 1.25 1.851v2.255c-1.049.273-1.871 1.095-2.143 2.144h-2.256c-.297-.732-1.014-1.25-1.851-1.25-1.103 0-2 .897-2 2s.897 2 2 2c.837 0 1.554-.518 1.851-1.25h2.149v4.5h-2.149c-.297-.732-1.014-1.25-1.851-1.25-1.103 0-2 .897-2 2s.897 2 2 2c.837 0 1.554-.518 1.851-1.25h2.255c.273 1.049 1.094 1.871 2.143 2.143v2.255c-.731.298-1.249 1.015-1.249 1.852 0 1.103.897 2 2 2s2-.897 2-2c0-.837-.518-1.554-1.25-1.851v-2.149h4.5v2.149c-.732.297-1.25 1.014-1.25 1.851 0 1.103.897 2 2 2s2-.897 2-2c0-.837-.518-1.554-1.25-1.851v-2.255c1.049-.273 1.871-1.094 2.143-2.143h2.255c.298.731 1.015 1.249 1.852 1.249 1.103 0 2-.897 2-2s-.897-2-2-2zm-6 2c0 .551-.448 1-1 1h-6c-.552 0-1-.449-1-1v-6c0-.551.448-1 1-1h6c.552 0 1 .449 1 1z" fill="#ffffff" data-original="#000000" style="" class=""/></g></svg>
