<svg width="1300" height="512" viewBox="0 0 1300 512" fill="none" xmlns="http://www.w3.org/2000/svg">
<rect width="1300" height="512" rx="19" fill="#E5E5E5"/>
<path d="M134.096 311.176C127.301 311.176 120.18 309.935 112.732 307.452C105.284 304.969 99.0773 300.788 94.112 294.908C93.0667 293.601 92.6093 292.229 92.74 290.792C93.0013 289.224 93.8507 287.917 95.288 286.872C96.5947 285.957 97.9667 285.631 99.404 285.892C100.972 286.153 102.213 286.872 103.128 288.048C106.917 292.491 111.491 295.627 116.848 297.456C122.336 299.155 128.281 300.004 134.684 300.004C145.66 300.004 153.435 298.044 158.008 294.124C162.581 290.204 164.868 285.631 164.868 280.404C164.868 270.081 154.872 263.483 134.88 260.608C121.813 258.779 112.144 255.251 105.872 250.024C99.6 244.797 96.464 238.721 96.464 231.796C96.464 221.996 99.992 214.548 107.048 209.452C114.235 204.225 123.316 201.612 134.292 201.612C143.177 201.612 150.691 203.245 156.832 206.512C162.973 209.648 167.939 213.895 171.728 219.252C172.773 220.559 173.1 221.996 172.708 223.564C172.447 225.001 171.467 226.177 169.768 227.092C168.461 227.745 167.089 227.941 165.652 227.68C164.215 227.419 162.973 226.635 161.928 225.328C155.264 216.835 145.921 212.588 133.9 212.588C125.668 212.588 119.265 214.352 114.692 217.88C110.119 221.408 107.832 225.655 107.832 230.62C107.832 235.716 110.053 239.897 114.496 243.164C118.939 246.3 126.517 248.652 137.232 250.22C147.032 251.527 154.741 253.748 160.36 256.884C166.109 260.02 170.16 263.679 172.512 267.86C174.995 271.911 176.236 276.288 176.236 280.992C176.236 287.133 174.276 292.491 170.356 297.064C166.436 301.637 161.275 305.165 154.872 307.648C148.469 310 141.544 311.176 134.096 311.176ZM208.602 310C206.903 310 205.466 309.477 204.29 308.432C203.245 307.256 202.722 305.819 202.722 304.12V208.668C202.722 206.839 203.245 205.401 204.29 204.356C205.466 203.311 206.903 202.788 208.602 202.788C210.431 202.788 211.869 203.311 212.914 204.356C213.959 205.401 214.482 206.839 214.482 208.668V216.312C218.141 211.608 222.583 207.949 227.81 205.336C233.167 202.723 238.982 201.416 245.254 201.416C252.963 201.416 259.823 203.311 265.834 207.1C271.845 210.759 276.549 215.855 279.946 222.388C283.474 215.855 288.374 210.759 294.646 207.1C300.918 203.311 307.974 201.416 315.814 201.416C323.785 201.416 330.775 203.376 336.786 207.296C342.797 211.216 347.501 216.639 350.898 223.564C354.426 230.489 356.19 238.46 356.19 247.476V304.12C356.19 305.819 355.667 307.256 354.622 308.432C353.577 309.477 352.139 310 350.31 310C348.611 310 347.174 309.477 345.998 308.432C344.953 307.256 344.43 305.819 344.43 304.12V247.476C344.43 237.415 341.751 229.183 336.394 222.78C331.167 216.377 324.307 213.176 315.814 213.176C306.798 213.176 299.415 216.181 293.666 222.192C288.047 228.072 285.369 236.043 285.63 246.104C285.63 246.496 285.63 246.953 285.63 247.476V304.12C285.63 305.819 285.107 307.256 284.062 308.432C283.017 309.477 281.579 310 279.75 310C278.051 310 276.614 309.477 275.438 308.432C274.393 307.256 273.87 305.819 273.87 304.12V247.476C273.87 237.415 271.191 229.183 265.834 222.78C260.607 216.377 253.747 213.176 245.254 213.176C236.238 213.176 228.855 216.051 223.106 221.8C217.357 227.549 214.482 234.997 214.482 244.144V304.12C214.482 305.819 213.959 307.256 212.914 308.432C211.869 309.477 210.431 310 208.602 310ZM438.535 311.176C428.081 311.176 418.673 308.824 410.311 304.12C402.079 299.285 395.545 292.752 390.711 284.52C386.007 276.157 383.655 266.815 383.655 256.492C383.655 246.039 386.007 236.696 390.711 228.464C395.545 220.101 402.079 213.568 410.311 208.864C418.673 204.029 428.081 201.612 438.535 201.612C448.988 201.612 458.331 204.029 466.563 208.864C474.795 213.568 481.263 220.101 485.967 228.464C490.801 236.696 493.219 246.039 493.219 256.492V304.12C493.219 305.819 492.696 307.256 491.651 308.432C490.605 309.477 489.168 310 487.339 310C485.64 310 484.203 309.477 483.027 308.432C481.981 307.256 481.459 305.819 481.459 304.12V288.832C477.147 295.627 471.267 301.049 463.819 305.1C456.371 309.151 447.943 311.176 438.535 311.176ZM438.535 300.2C446.767 300.2 454.084 298.305 460.487 294.516C467.02 290.596 472.116 285.369 475.775 278.836C479.564 272.172 481.459 264.724 481.459 256.492C481.459 248.129 479.564 240.681 475.775 234.148C472.116 227.484 467.02 222.257 460.487 218.468C454.084 214.548 446.767 212.588 438.535 212.588C430.433 212.588 423.116 214.548 416.583 218.468C410.049 222.257 404.888 227.484 401.099 234.148C397.309 240.681 395.415 248.129 395.415 256.492C395.415 264.724 397.309 272.172 401.099 278.836C404.888 285.369 410.049 290.596 416.583 294.516C423.116 298.305 430.433 300.2 438.535 300.2ZM528.442 310C526.743 310 525.306 309.477 524.13 308.432C523.085 307.256 522.562 305.819 522.562 304.12V208.668C522.562 206.839 523.085 205.401 524.13 204.356C525.306 203.311 526.743 202.788 528.442 202.788C530.271 202.788 531.709 203.311 532.754 204.356C533.799 205.401 534.322 206.839 534.322 208.668V220.82C538.111 214.809 542.881 210.105 548.63 206.708C554.51 203.311 560.978 201.612 568.034 201.612C572.999 201.612 576.854 202.2 579.598 203.376C582.342 204.552 583.387 206.643 582.734 209.648C582.342 211.608 581.427 212.784 579.99 213.176C578.553 213.568 576.789 213.633 574.698 213.372C572.738 212.98 570.517 212.784 568.034 212.784C561.501 212.784 555.686 214.156 550.59 216.9C545.494 219.644 541.509 223.433 538.634 228.268C535.759 232.972 534.322 238.395 534.322 244.536V304.12C534.322 305.819 533.799 307.256 532.754 308.432C531.709 309.477 530.271 310 528.442 310ZM652.407 310C645.221 309.869 638.818 308.236 633.199 305.1C627.581 301.833 623.203 297.391 620.067 291.772C616.931 286.023 615.363 279.555 615.363 272.368V217.292H600.075C598.507 217.292 597.201 216.835 596.155 215.92C595.241 214.875 594.783 213.568 594.783 212C594.783 210.432 595.241 209.191 596.155 208.276C597.201 207.231 598.507 206.708 600.075 206.708H615.363V174.76C615.363 172.931 615.886 171.493 616.931 170.448C618.107 169.272 619.545 168.684 621.243 168.684C623.073 168.684 624.51 169.272 625.555 170.448C626.731 171.493 627.319 172.931 627.319 174.76V206.708H653.191C654.759 206.708 656.001 207.231 656.915 208.276C657.961 209.191 658.483 210.432 658.483 212C658.483 213.568 657.961 214.875 656.915 215.92C656.001 216.835 654.759 217.292 653.191 217.292H627.319V272.368C627.319 279.947 629.671 286.153 634.375 290.988C639.079 295.692 645.155 298.044 652.603 298.044H656.915C658.745 298.044 660.182 298.632 661.227 299.808C662.403 300.853 662.991 302.291 662.991 304.12C662.991 305.819 662.403 307.256 661.227 308.432C660.182 309.477 658.745 310 656.915 310H652.407ZM693.434 310C691.735 310 690.298 309.477 689.122 308.432C688.077 307.256 687.554 305.819 687.554 304.12V208.668C687.554 206.839 688.077 205.401 689.122 204.356C690.298 203.311 691.735 202.788 693.434 202.788C695.263 202.788 696.701 203.311 697.746 204.356C698.791 205.401 699.314 206.839 699.314 208.668V216.312C702.973 211.608 707.415 207.949 712.642 205.336C717.999 202.723 723.814 201.416 730.086 201.416C737.795 201.416 744.655 203.311 750.666 207.1C756.677 210.759 761.381 215.855 764.778 222.388C768.306 215.855 773.206 210.759 779.478 207.1C785.75 203.311 792.806 201.416 800.646 201.416C808.617 201.416 815.607 203.376 821.618 207.296C827.629 211.216 832.333 216.639 835.73 223.564C839.258 230.489 841.022 238.46 841.022 247.476V304.12C841.022 305.819 840.499 307.256 839.454 308.432C838.409 309.477 836.971 310 835.142 310C833.443 310 832.006 309.477 830.83 308.432C829.785 307.256 829.262 305.819 829.262 304.12V247.476C829.262 237.415 826.583 229.183 821.226 222.78C815.999 216.377 809.139 213.176 800.646 213.176C791.63 213.176 784.247 216.181 778.498 222.192C772.879 228.072 770.201 236.043 770.462 246.104C770.462 246.496 770.462 246.953 770.462 247.476V304.12C770.462 305.819 769.939 307.256 768.894 308.432C767.849 309.477 766.411 310 764.582 310C762.883 310 761.446 309.477 760.27 308.432C759.225 307.256 758.702 305.819 758.702 304.12V247.476C758.702 237.415 756.023 229.183 750.666 222.78C745.439 216.377 738.579 213.176 730.086 213.176C721.07 213.176 713.687 216.051 707.938 221.8C702.189 227.549 699.314 234.997 699.314 244.144V304.12C699.314 305.819 698.791 307.256 697.746 308.432C696.701 309.477 695.263 310 693.434 310ZM923.367 311.176C912.913 311.176 903.505 308.824 895.143 304.12C886.911 299.285 880.377 292.752 875.543 284.52C870.839 276.157 868.487 266.815 868.487 256.492C868.487 246.039 870.839 236.696 875.543 228.464C880.377 220.101 886.911 213.568 895.143 208.864C903.505 204.029 912.913 201.612 923.367 201.612C933.82 201.612 943.163 204.029 951.395 208.864C959.627 213.568 966.095 220.101 970.799 228.464C975.633 236.696 978.051 246.039 978.051 256.492V304.12C978.051 305.819 977.528 307.256 976.483 308.432C975.437 309.477 974 310 972.171 310C970.472 310 969.035 309.477 967.859 308.432C966.813 307.256 966.291 305.819 966.291 304.12V288.832C961.979 295.627 956.099 301.049 948.651 305.1C941.203 309.151 932.775 311.176 923.367 311.176ZM923.367 300.2C931.599 300.2 938.916 298.305 945.319 294.516C951.852 290.596 956.948 285.369 960.607 278.836C964.396 272.172 966.291 264.724 966.291 256.492C966.291 248.129 964.396 240.681 960.607 234.148C956.948 227.484 951.852 222.257 945.319 218.468C938.916 214.548 931.599 212.588 923.367 212.588C915.265 212.588 907.948 214.548 901.415 218.468C894.881 222.257 889.72 227.484 885.931 234.148C882.141 240.681 880.247 248.129 880.247 256.492C880.247 264.724 882.141 272.172 885.931 278.836C889.72 285.369 894.881 290.596 901.415 294.516C907.948 298.305 915.265 300.2 923.367 300.2ZM1043.85 311.176C1037.06 311.176 1029.93 309.935 1022.49 307.452C1015.04 304.969 1008.83 300.788 1003.87 294.908C1002.82 293.601 1002.36 292.229 1002.49 290.792C1002.76 289.224 1003.6 287.917 1005.04 286.872C1006.35 285.957 1007.72 285.631 1009.16 285.892C1010.73 286.153 1011.97 286.872 1012.88 288.048C1016.67 292.491 1021.24 295.627 1026.6 297.456C1032.09 299.155 1038.04 300.004 1044.44 300.004C1055.41 300.004 1063.19 298.044 1067.76 294.124C1072.34 290.204 1074.62 285.631 1074.62 280.404C1074.62 270.081 1064.63 263.483 1044.63 260.608C1031.57 258.779 1021.9 255.251 1015.63 250.024C1009.35 244.797 1006.22 238.721 1006.22 231.796C1006.22 221.996 1009.75 214.548 1016.8 209.452C1023.99 204.225 1033.07 201.612 1044.05 201.612C1052.93 201.612 1060.44 203.245 1066.59 206.512C1072.73 209.648 1077.69 213.895 1081.48 219.252C1082.53 220.559 1082.85 221.996 1082.46 223.564C1082.2 225.001 1081.22 226.177 1079.52 227.092C1078.22 227.745 1076.84 227.941 1075.41 227.68C1073.97 227.419 1072.73 226.635 1071.68 225.328C1065.02 216.835 1055.68 212.588 1043.65 212.588C1035.42 212.588 1029.02 214.352 1024.45 217.88C1019.87 221.408 1017.59 225.655 1017.59 230.62C1017.59 235.716 1019.81 239.897 1024.25 243.164C1028.69 246.3 1036.27 248.652 1046.99 250.22C1056.79 251.527 1064.5 253.748 1070.11 256.884C1075.86 260.02 1079.91 263.679 1082.27 267.86C1084.75 271.911 1085.99 276.288 1085.99 280.992C1085.99 287.133 1084.03 292.491 1080.11 297.064C1076.19 301.637 1071.03 305.165 1064.63 307.648C1058.22 310 1051.3 311.176 1043.85 311.176ZM1118.36 310C1116.66 310 1115.22 309.477 1114.04 308.432C1113 307.256 1112.48 305.819 1112.48 304.12V162.804C1112.48 160.975 1113 159.537 1114.04 158.492C1115.22 157.447 1116.66 156.924 1118.36 156.924C1120.19 156.924 1121.62 157.447 1122.67 158.492C1123.71 159.537 1124.24 160.975 1124.24 162.804V258.648L1185 203.376C1187.61 201.155 1190.09 201.285 1192.44 203.768C1194.93 206.512 1194.86 208.995 1192.25 211.216L1150.7 249.044L1193.42 301.376C1195.65 304.12 1195.38 306.668 1192.64 309.02C1189.9 311.372 1187.35 311.111 1185 308.236L1142.46 256.296L1124.24 272.956V304.12C1124.24 305.819 1123.71 307.256 1122.67 308.432C1121.62 309.477 1120.19 310 1118.36 310Z" fill="#14213D"/>
</svg>
