<svg width="1300" height="512" viewBox="0 0 1300 512" fill="none" xmlns="http://www.w3.org/2000/svg">
<rect width="1300" height="512" rx="19" fill="#14213D"/>
<path d="M134.096 322.176C127.301 322.176 120.18 320.935 112.732 318.452C105.284 315.969 99.0773 311.788 94.112 305.908C93.0667 304.601 92.6093 303.229 92.74 301.792C93.0013 300.224 93.8507 298.917 95.288 297.872C96.5947 296.957 97.9667 296.631 99.404 296.892C100.972 297.153 102.213 297.872 103.128 299.048C106.917 303.491 111.491 306.627 116.848 308.456C122.336 310.155 128.281 311.004 134.684 311.004C145.66 311.004 153.435 309.044 158.008 305.124C162.581 301.204 164.868 296.631 164.868 291.404C164.868 281.081 154.872 274.483 134.88 271.608C121.813 269.779 112.144 266.251 105.872 261.024C99.6 255.797 96.464 249.721 96.464 242.796C96.464 232.996 99.992 225.548 107.048 220.452C114.235 215.225 123.316 212.612 134.292 212.612C143.177 212.612 150.691 214.245 156.832 217.512C162.973 220.648 167.939 224.895 171.728 230.252C172.773 231.559 173.1 232.996 172.708 234.564C172.447 236.001 171.467 237.177 169.768 238.092C168.461 238.745 167.089 238.941 165.652 238.68C164.215 238.419 162.973 237.635 161.928 236.328C155.264 227.835 145.921 223.588 133.9 223.588C125.668 223.588 119.265 225.352 114.692 228.88C110.119 232.408 107.832 236.655 107.832 241.62C107.832 246.716 110.053 250.897 114.496 254.164C118.939 257.3 126.517 259.652 137.232 261.22C147.032 262.527 154.741 264.748 160.36 267.884C166.109 271.02 170.16 274.679 172.512 278.86C174.995 282.911 176.236 287.288 176.236 291.992C176.236 298.133 174.276 303.491 170.356 308.064C166.436 312.637 161.275 316.165 154.872 318.648C148.469 321 141.544 322.176 134.096 322.176ZM208.602 321C206.903 321 205.466 320.477 204.29 319.432C203.245 318.256 202.722 316.819 202.722 315.12V219.668C202.722 217.839 203.245 216.401 204.29 215.356C205.466 214.311 206.903 213.788 208.602 213.788C210.431 213.788 211.869 214.311 212.914 215.356C213.959 216.401 214.482 217.839 214.482 219.668V227.312C218.141 222.608 222.583 218.949 227.81 216.336C233.167 213.723 238.982 212.416 245.254 212.416C252.963 212.416 259.823 214.311 265.834 218.1C271.845 221.759 276.549 226.855 279.946 233.388C283.474 226.855 288.374 221.759 294.646 218.1C300.918 214.311 307.974 212.416 315.814 212.416C323.785 212.416 330.775 214.376 336.786 218.296C342.797 222.216 347.501 227.639 350.898 234.564C354.426 241.489 356.19 249.46 356.19 258.476V315.12C356.19 316.819 355.667 318.256 354.622 319.432C353.577 320.477 352.139 321 350.31 321C348.611 321 347.174 320.477 345.998 319.432C344.953 318.256 344.43 316.819 344.43 315.12V258.476C344.43 248.415 341.751 240.183 336.394 233.78C331.167 227.377 324.307 224.176 315.814 224.176C306.798 224.176 299.415 227.181 293.666 233.192C288.047 239.072 285.369 247.043 285.63 257.104C285.63 257.496 285.63 257.953 285.63 258.476V315.12C285.63 316.819 285.107 318.256 284.062 319.432C283.017 320.477 281.579 321 279.75 321C278.051 321 276.614 320.477 275.438 319.432C274.393 318.256 273.87 316.819 273.87 315.12V258.476C273.87 248.415 271.191 240.183 265.834 233.78C260.607 227.377 253.747 224.176 245.254 224.176C236.238 224.176 228.855 227.051 223.106 232.8C217.357 238.549 214.482 245.997 214.482 255.144V315.12C214.482 316.819 213.959 318.256 212.914 319.432C211.869 320.477 210.431 321 208.602 321ZM438.535 322.176C428.081 322.176 418.673 319.824 410.311 315.12C402.079 310.285 395.545 303.752 390.711 295.52C386.007 287.157 383.655 277.815 383.655 267.492C383.655 257.039 386.007 247.696 390.711 239.464C395.545 231.101 402.079 224.568 410.311 219.864C418.673 215.029 428.081 212.612 438.535 212.612C448.988 212.612 458.331 215.029 466.563 219.864C474.795 224.568 481.263 231.101 485.967 239.464C490.801 247.696 493.219 257.039 493.219 267.492V315.12C493.219 316.819 492.696 318.256 491.651 319.432C490.605 320.477 489.168 321 487.339 321C485.64 321 484.203 320.477 483.027 319.432C481.981 318.256 481.459 316.819 481.459 315.12V299.832C477.147 306.627 471.267 312.049 463.819 316.1C456.371 320.151 447.943 322.176 438.535 322.176ZM438.535 311.2C446.767 311.2 454.084 309.305 460.487 305.516C467.02 301.596 472.116 296.369 475.775 289.836C479.564 283.172 481.459 275.724 481.459 267.492C481.459 259.129 479.564 251.681 475.775 245.148C472.116 238.484 467.02 233.257 460.487 229.468C454.084 225.548 446.767 223.588 438.535 223.588C430.433 223.588 423.116 225.548 416.583 229.468C410.049 233.257 404.888 238.484 401.099 245.148C397.309 251.681 395.415 259.129 395.415 267.492C395.415 275.724 397.309 283.172 401.099 289.836C404.888 296.369 410.049 301.596 416.583 305.516C423.116 309.305 430.433 311.2 438.535 311.2ZM528.442 321C526.743 321 525.306 320.477 524.13 319.432C523.085 318.256 522.562 316.819 522.562 315.12V219.668C522.562 217.839 523.085 216.401 524.13 215.356C525.306 214.311 526.743 213.788 528.442 213.788C530.271 213.788 531.709 214.311 532.754 215.356C533.799 216.401 534.322 217.839 534.322 219.668V231.82C538.111 225.809 542.881 221.105 548.63 217.708C554.51 214.311 560.978 212.612 568.034 212.612C572.999 212.612 576.854 213.2 579.598 214.376C582.342 215.552 583.387 217.643 582.734 220.648C582.342 222.608 581.427 223.784 579.99 224.176C578.553 224.568 576.789 224.633 574.698 224.372C572.738 223.98 570.517 223.784 568.034 223.784C561.501 223.784 555.686 225.156 550.59 227.9C545.494 230.644 541.509 234.433 538.634 239.268C535.759 243.972 534.322 249.395 534.322 255.536V315.12C534.322 316.819 533.799 318.256 532.754 319.432C531.709 320.477 530.271 321 528.442 321ZM652.407 321C645.221 320.869 638.818 319.236 633.199 316.1C627.581 312.833 623.203 308.391 620.067 302.772C616.931 297.023 615.363 290.555 615.363 283.368V228.292H600.075C598.507 228.292 597.201 227.835 596.155 226.92C595.241 225.875 594.783 224.568 594.783 223C594.783 221.432 595.241 220.191 596.155 219.276C597.201 218.231 598.507 217.708 600.075 217.708H615.363V185.76C615.363 183.931 615.886 182.493 616.931 181.448C618.107 180.272 619.545 179.684 621.243 179.684C623.073 179.684 624.51 180.272 625.555 181.448C626.731 182.493 627.319 183.931 627.319 185.76V217.708H653.191C654.759 217.708 656.001 218.231 656.915 219.276C657.961 220.191 658.483 221.432 658.483 223C658.483 224.568 657.961 225.875 656.915 226.92C656.001 227.835 654.759 228.292 653.191 228.292H627.319V283.368C627.319 290.947 629.671 297.153 634.375 301.988C639.079 306.692 645.155 309.044 652.603 309.044H656.915C658.745 309.044 660.182 309.632 661.227 310.808C662.403 311.853 662.991 313.291 662.991 315.12C662.991 316.819 662.403 318.256 661.227 319.432C660.182 320.477 658.745 321 656.915 321H652.407ZM693.434 321C691.735 321 690.298 320.477 689.122 319.432C688.077 318.256 687.554 316.819 687.554 315.12V219.668C687.554 217.839 688.077 216.401 689.122 215.356C690.298 214.311 691.735 213.788 693.434 213.788C695.263 213.788 696.701 214.311 697.746 215.356C698.791 216.401 699.314 217.839 699.314 219.668V227.312C702.973 222.608 707.415 218.949 712.642 216.336C717.999 213.723 723.814 212.416 730.086 212.416C737.795 212.416 744.655 214.311 750.666 218.1C756.677 221.759 761.381 226.855 764.778 233.388C768.306 226.855 773.206 221.759 779.478 218.1C785.75 214.311 792.806 212.416 800.646 212.416C808.617 212.416 815.607 214.376 821.618 218.296C827.629 222.216 832.333 227.639 835.73 234.564C839.258 241.489 841.022 249.46 841.022 258.476V315.12C841.022 316.819 840.499 318.256 839.454 319.432C838.409 320.477 836.971 321 835.142 321C833.443 321 832.006 320.477 830.83 319.432C829.785 318.256 829.262 316.819 829.262 315.12V258.476C829.262 248.415 826.583 240.183 821.226 233.78C815.999 227.377 809.139 224.176 800.646 224.176C791.63 224.176 784.247 227.181 778.498 233.192C772.879 239.072 770.201 247.043 770.462 257.104C770.462 257.496 770.462 257.953 770.462 258.476V315.12C770.462 316.819 769.939 318.256 768.894 319.432C767.849 320.477 766.411 321 764.582 321C762.883 321 761.446 320.477 760.27 319.432C759.225 318.256 758.702 316.819 758.702 315.12V258.476C758.702 248.415 756.023 240.183 750.666 233.78C745.439 227.377 738.579 224.176 730.086 224.176C721.07 224.176 713.687 227.051 707.938 232.8C702.189 238.549 699.314 245.997 699.314 255.144V315.12C699.314 316.819 698.791 318.256 697.746 319.432C696.701 320.477 695.263 321 693.434 321ZM923.367 322.176C912.913 322.176 903.505 319.824 895.143 315.12C886.911 310.285 880.377 303.752 875.543 295.52C870.839 287.157 868.487 277.815 868.487 267.492C868.487 257.039 870.839 247.696 875.543 239.464C880.377 231.101 886.911 224.568 895.143 219.864C903.505 215.029 912.913 212.612 923.367 212.612C933.82 212.612 943.163 215.029 951.395 219.864C959.627 224.568 966.095 231.101 970.799 239.464C975.633 247.696 978.051 257.039 978.051 267.492V315.12C978.051 316.819 977.528 318.256 976.483 319.432C975.437 320.477 974 321 972.171 321C970.472 321 969.035 320.477 967.859 319.432C966.813 318.256 966.291 316.819 966.291 315.12V299.832C961.979 306.627 956.099 312.049 948.651 316.1C941.203 320.151 932.775 322.176 923.367 322.176ZM923.367 311.2C931.599 311.2 938.916 309.305 945.319 305.516C951.852 301.596 956.948 296.369 960.607 289.836C964.396 283.172 966.291 275.724 966.291 267.492C966.291 259.129 964.396 251.681 960.607 245.148C956.948 238.484 951.852 233.257 945.319 229.468C938.916 225.548 931.599 223.588 923.367 223.588C915.265 223.588 907.948 225.548 901.415 229.468C894.881 233.257 889.72 238.484 885.931 245.148C882.141 251.681 880.247 259.129 880.247 267.492C880.247 275.724 882.141 283.172 885.931 289.836C889.72 296.369 894.881 301.596 901.415 305.516C907.948 309.305 915.265 311.2 923.367 311.2ZM1043.85 322.176C1037.06 322.176 1029.93 320.935 1022.49 318.452C1015.04 315.969 1008.83 311.788 1003.87 305.908C1002.82 304.601 1002.36 303.229 1002.49 301.792C1002.76 300.224 1003.6 298.917 1005.04 297.872C1006.35 296.957 1007.72 296.631 1009.16 296.892C1010.73 297.153 1011.97 297.872 1012.88 299.048C1016.67 303.491 1021.24 306.627 1026.6 308.456C1032.09 310.155 1038.04 311.004 1044.44 311.004C1055.41 311.004 1063.19 309.044 1067.76 305.124C1072.34 301.204 1074.62 296.631 1074.62 291.404C1074.62 281.081 1064.63 274.483 1044.63 271.608C1031.57 269.779 1021.9 266.251 1015.63 261.024C1009.35 255.797 1006.22 249.721 1006.22 242.796C1006.22 232.996 1009.75 225.548 1016.8 220.452C1023.99 215.225 1033.07 212.612 1044.05 212.612C1052.93 212.612 1060.44 214.245 1066.59 217.512C1072.73 220.648 1077.69 224.895 1081.48 230.252C1082.53 231.559 1082.85 232.996 1082.46 234.564C1082.2 236.001 1081.22 237.177 1079.52 238.092C1078.22 238.745 1076.84 238.941 1075.41 238.68C1073.97 238.419 1072.73 237.635 1071.68 236.328C1065.02 227.835 1055.68 223.588 1043.65 223.588C1035.42 223.588 1029.02 225.352 1024.45 228.88C1019.87 232.408 1017.59 236.655 1017.59 241.62C1017.59 246.716 1019.81 250.897 1024.25 254.164C1028.69 257.3 1036.27 259.652 1046.99 261.22C1056.79 262.527 1064.5 264.748 1070.11 267.884C1075.86 271.02 1079.91 274.679 1082.27 278.86C1084.75 282.911 1085.99 287.288 1085.99 291.992C1085.99 298.133 1084.03 303.491 1080.11 308.064C1076.19 312.637 1071.03 316.165 1064.63 318.648C1058.22 321 1051.3 322.176 1043.85 322.176ZM1118.36 321C1116.66 321 1115.22 320.477 1114.04 319.432C1113 318.256 1112.48 316.819 1112.48 315.12V173.804C1112.48 171.975 1113 170.537 1114.04 169.492C1115.22 168.447 1116.66 167.924 1118.36 167.924C1120.19 167.924 1121.62 168.447 1122.67 169.492C1123.71 170.537 1124.24 171.975 1124.24 173.804V269.648L1185 214.376C1187.61 212.155 1190.09 212.285 1192.44 214.768C1194.93 217.512 1194.86 219.995 1192.25 222.216L1150.7 260.044L1193.42 312.376C1195.65 315.12 1195.38 317.668 1192.64 320.02C1189.9 322.372 1187.35 322.111 1185 319.236L1142.46 267.296L1124.24 283.956V315.12C1124.24 316.819 1123.71 318.256 1122.67 319.432C1121.62 320.477 1120.19 321 1118.36 321Z" fill="#FCA311"/>
</svg>
