<svg width="1300" height="512" viewBox="0 0 1300 512" fill="none" xmlns="http://www.w3.org/2000/svg">
<rect width="1300" height="512" rx="19" fill="white"/>
<path d="M134.096 315.176C127.301 315.176 120.18 313.935 112.732 311.452C105.284 308.969 99.0773 304.788 94.112 298.908C93.0667 297.601 92.6093 296.229 92.74 294.792C93.0013 293.224 93.8507 291.917 95.288 290.872C96.5947 289.957 97.9667 289.631 99.404 289.892C100.972 290.153 102.213 290.872 103.128 292.048C106.917 296.491 111.491 299.627 116.848 301.456C122.336 303.155 128.281 304.004 134.684 304.004C145.66 304.004 153.435 302.044 158.008 298.124C162.581 294.204 164.868 289.631 164.868 284.404C164.868 274.081 154.872 267.483 134.88 264.608C121.813 262.779 112.144 259.251 105.872 254.024C99.6 248.797 96.464 242.721 96.464 235.796C96.464 225.996 99.992 218.548 107.048 213.452C114.235 208.225 123.316 205.612 134.292 205.612C143.177 205.612 150.691 207.245 156.832 210.512C162.973 213.648 167.939 217.895 171.728 223.252C172.773 224.559 173.1 225.996 172.708 227.564C172.447 229.001 171.467 230.177 169.768 231.092C168.461 231.745 167.089 231.941 165.652 231.68C164.215 231.419 162.973 230.635 161.928 229.328C155.264 220.835 145.921 216.588 133.9 216.588C125.668 216.588 119.265 218.352 114.692 221.88C110.119 225.408 107.832 229.655 107.832 234.62C107.832 239.716 110.053 243.897 114.496 247.164C118.939 250.3 126.517 252.652 137.232 254.22C147.032 255.527 154.741 257.748 160.36 260.884C166.109 264.02 170.16 267.679 172.512 271.86C174.995 275.911 176.236 280.288 176.236 284.992C176.236 291.133 174.276 296.491 170.356 301.064C166.436 305.637 161.275 309.165 154.872 311.648C148.469 314 141.544 315.176 134.096 315.176ZM208.602 314C206.903 314 205.466 313.477 204.29 312.432C203.245 311.256 202.722 309.819 202.722 308.12V212.668C202.722 210.839 203.245 209.401 204.29 208.356C205.466 207.311 206.903 206.788 208.602 206.788C210.431 206.788 211.869 207.311 212.914 208.356C213.959 209.401 214.482 210.839 214.482 212.668V220.312C218.141 215.608 222.583 211.949 227.81 209.336C233.167 206.723 238.982 205.416 245.254 205.416C252.963 205.416 259.823 207.311 265.834 211.1C271.845 214.759 276.549 219.855 279.946 226.388C283.474 219.855 288.374 214.759 294.646 211.1C300.918 207.311 307.974 205.416 315.814 205.416C323.785 205.416 330.775 207.376 336.786 211.296C342.797 215.216 347.501 220.639 350.898 227.564C354.426 234.489 356.19 242.46 356.19 251.476V308.12C356.19 309.819 355.667 311.256 354.622 312.432C353.577 313.477 352.139 314 350.31 314C348.611 314 347.174 313.477 345.998 312.432C344.953 311.256 344.43 309.819 344.43 308.12V251.476C344.43 241.415 341.751 233.183 336.394 226.78C331.167 220.377 324.307 217.176 315.814 217.176C306.798 217.176 299.415 220.181 293.666 226.192C288.047 232.072 285.369 240.043 285.63 250.104C285.63 250.496 285.63 250.953 285.63 251.476V308.12C285.63 309.819 285.107 311.256 284.062 312.432C283.017 313.477 281.579 314 279.75 314C278.051 314 276.614 313.477 275.438 312.432C274.393 311.256 273.87 309.819 273.87 308.12V251.476C273.87 241.415 271.191 233.183 265.834 226.78C260.607 220.377 253.747 217.176 245.254 217.176C236.238 217.176 228.855 220.051 223.106 225.8C217.357 231.549 214.482 238.997 214.482 248.144V308.12C214.482 309.819 213.959 311.256 212.914 312.432C211.869 313.477 210.431 314 208.602 314ZM438.535 315.176C428.081 315.176 418.673 312.824 410.311 308.12C402.079 303.285 395.545 296.752 390.711 288.52C386.007 280.157 383.655 270.815 383.655 260.492C383.655 250.039 386.007 240.696 390.711 232.464C395.545 224.101 402.079 217.568 410.311 212.864C418.673 208.029 428.081 205.612 438.535 205.612C448.988 205.612 458.331 208.029 466.563 212.864C474.795 217.568 481.263 224.101 485.967 232.464C490.801 240.696 493.219 250.039 493.219 260.492V308.12C493.219 309.819 492.696 311.256 491.651 312.432C490.605 313.477 489.168 314 487.339 314C485.64 314 484.203 313.477 483.027 312.432C481.981 311.256 481.459 309.819 481.459 308.12V292.832C477.147 299.627 471.267 305.049 463.819 309.1C456.371 313.151 447.943 315.176 438.535 315.176ZM438.535 304.2C446.767 304.2 454.084 302.305 460.487 298.516C467.02 294.596 472.116 289.369 475.775 282.836C479.564 276.172 481.459 268.724 481.459 260.492C481.459 252.129 479.564 244.681 475.775 238.148C472.116 231.484 467.02 226.257 460.487 222.468C454.084 218.548 446.767 216.588 438.535 216.588C430.433 216.588 423.116 218.548 416.583 222.468C410.049 226.257 404.888 231.484 401.099 238.148C397.309 244.681 395.415 252.129 395.415 260.492C395.415 268.724 397.309 276.172 401.099 282.836C404.888 289.369 410.049 294.596 416.583 298.516C423.116 302.305 430.433 304.2 438.535 304.2ZM528.442 314C526.743 314 525.306 313.477 524.13 312.432C523.085 311.256 522.562 309.819 522.562 308.12V212.668C522.562 210.839 523.085 209.401 524.13 208.356C525.306 207.311 526.743 206.788 528.442 206.788C530.271 206.788 531.709 207.311 532.754 208.356C533.799 209.401 534.322 210.839 534.322 212.668V224.82C538.111 218.809 542.881 214.105 548.63 210.708C554.51 207.311 560.978 205.612 568.034 205.612C572.999 205.612 576.854 206.2 579.598 207.376C582.342 208.552 583.387 210.643 582.734 213.648C582.342 215.608 581.427 216.784 579.99 217.176C578.553 217.568 576.789 217.633 574.698 217.372C572.738 216.98 570.517 216.784 568.034 216.784C561.501 216.784 555.686 218.156 550.59 220.9C545.494 223.644 541.509 227.433 538.634 232.268C535.759 236.972 534.322 242.395 534.322 248.536V308.12C534.322 309.819 533.799 311.256 532.754 312.432C531.709 313.477 530.271 314 528.442 314ZM652.407 314C645.221 313.869 638.818 312.236 633.199 309.1C627.581 305.833 623.203 301.391 620.067 295.772C616.931 290.023 615.363 283.555 615.363 276.368V221.292H600.075C598.507 221.292 597.201 220.835 596.155 219.92C595.241 218.875 594.783 217.568 594.783 216C594.783 214.432 595.241 213.191 596.155 212.276C597.201 211.231 598.507 210.708 600.075 210.708H615.363V178.76C615.363 176.931 615.886 175.493 616.931 174.448C618.107 173.272 619.545 172.684 621.243 172.684C623.073 172.684 624.51 173.272 625.555 174.448C626.731 175.493 627.319 176.931 627.319 178.76V210.708H653.191C654.759 210.708 656.001 211.231 656.915 212.276C657.961 213.191 658.483 214.432 658.483 216C658.483 217.568 657.961 218.875 656.915 219.92C656.001 220.835 654.759 221.292 653.191 221.292H627.319V276.368C627.319 283.947 629.671 290.153 634.375 294.988C639.079 299.692 645.155 302.044 652.603 302.044H656.915C658.745 302.044 660.182 302.632 661.227 303.808C662.403 304.853 662.991 306.291 662.991 308.12C662.991 309.819 662.403 311.256 661.227 312.432C660.182 313.477 658.745 314 656.915 314H652.407ZM693.434 314C691.735 314 690.298 313.477 689.122 312.432C688.077 311.256 687.554 309.819 687.554 308.12V212.668C687.554 210.839 688.077 209.401 689.122 208.356C690.298 207.311 691.735 206.788 693.434 206.788C695.263 206.788 696.701 207.311 697.746 208.356C698.791 209.401 699.314 210.839 699.314 212.668V220.312C702.973 215.608 707.415 211.949 712.642 209.336C717.999 206.723 723.814 205.416 730.086 205.416C737.795 205.416 744.655 207.311 750.666 211.1C756.677 214.759 761.381 219.855 764.778 226.388C768.306 219.855 773.206 214.759 779.478 211.1C785.75 207.311 792.806 205.416 800.646 205.416C808.617 205.416 815.607 207.376 821.618 211.296C827.629 215.216 832.333 220.639 835.73 227.564C839.258 234.489 841.022 242.46 841.022 251.476V308.12C841.022 309.819 840.499 311.256 839.454 312.432C838.409 313.477 836.971 314 835.142 314C833.443 314 832.006 313.477 830.83 312.432C829.785 311.256 829.262 309.819 829.262 308.12V251.476C829.262 241.415 826.583 233.183 821.226 226.78C815.999 220.377 809.139 217.176 800.646 217.176C791.63 217.176 784.247 220.181 778.498 226.192C772.879 232.072 770.201 240.043 770.462 250.104C770.462 250.496 770.462 250.953 770.462 251.476V308.12C770.462 309.819 769.939 311.256 768.894 312.432C767.849 313.477 766.411 314 764.582 314C762.883 314 761.446 313.477 760.27 312.432C759.225 311.256 758.702 309.819 758.702 308.12V251.476C758.702 241.415 756.023 233.183 750.666 226.78C745.439 220.377 738.579 217.176 730.086 217.176C721.07 217.176 713.687 220.051 707.938 225.8C702.189 231.549 699.314 238.997 699.314 248.144V308.12C699.314 309.819 698.791 311.256 697.746 312.432C696.701 313.477 695.263 314 693.434 314ZM923.367 315.176C912.913 315.176 903.505 312.824 895.143 308.12C886.911 303.285 880.377 296.752 875.543 288.52C870.839 280.157 868.487 270.815 868.487 260.492C868.487 250.039 870.839 240.696 875.543 232.464C880.377 224.101 886.911 217.568 895.143 212.864C903.505 208.029 912.913 205.612 923.367 205.612C933.82 205.612 943.163 208.029 951.395 212.864C959.627 217.568 966.095 224.101 970.799 232.464C975.633 240.696 978.051 250.039 978.051 260.492V308.12C978.051 309.819 977.528 311.256 976.483 312.432C975.437 313.477 974 314 972.171 314C970.472 314 969.035 313.477 967.859 312.432C966.813 311.256 966.291 309.819 966.291 308.12V292.832C961.979 299.627 956.099 305.049 948.651 309.1C941.203 313.151 932.775 315.176 923.367 315.176ZM923.367 304.2C931.599 304.2 938.916 302.305 945.319 298.516C951.852 294.596 956.948 289.369 960.607 282.836C964.396 276.172 966.291 268.724 966.291 260.492C966.291 252.129 964.396 244.681 960.607 238.148C956.948 231.484 951.852 226.257 945.319 222.468C938.916 218.548 931.599 216.588 923.367 216.588C915.265 216.588 907.948 218.548 901.415 222.468C894.881 226.257 889.72 231.484 885.931 238.148C882.141 244.681 880.247 252.129 880.247 260.492C880.247 268.724 882.141 276.172 885.931 282.836C889.72 289.369 894.881 294.596 901.415 298.516C907.948 302.305 915.265 304.2 923.367 304.2ZM1043.85 315.176C1037.06 315.176 1029.93 313.935 1022.49 311.452C1015.04 308.969 1008.83 304.788 1003.87 298.908C1002.82 297.601 1002.36 296.229 1002.49 294.792C1002.76 293.224 1003.6 291.917 1005.04 290.872C1006.35 289.957 1007.72 289.631 1009.16 289.892C1010.73 290.153 1011.97 290.872 1012.88 292.048C1016.67 296.491 1021.24 299.627 1026.6 301.456C1032.09 303.155 1038.04 304.004 1044.44 304.004C1055.41 304.004 1063.19 302.044 1067.76 298.124C1072.34 294.204 1074.62 289.631 1074.62 284.404C1074.62 274.081 1064.63 267.483 1044.63 264.608C1031.57 262.779 1021.9 259.251 1015.63 254.024C1009.35 248.797 1006.22 242.721 1006.22 235.796C1006.22 225.996 1009.75 218.548 1016.8 213.452C1023.99 208.225 1033.07 205.612 1044.05 205.612C1052.93 205.612 1060.44 207.245 1066.59 210.512C1072.73 213.648 1077.69 217.895 1081.48 223.252C1082.53 224.559 1082.85 225.996 1082.46 227.564C1082.2 229.001 1081.22 230.177 1079.52 231.092C1078.22 231.745 1076.84 231.941 1075.41 231.68C1073.97 231.419 1072.73 230.635 1071.68 229.328C1065.02 220.835 1055.68 216.588 1043.65 216.588C1035.42 216.588 1029.02 218.352 1024.45 221.88C1019.87 225.408 1017.59 229.655 1017.59 234.62C1017.59 239.716 1019.81 243.897 1024.25 247.164C1028.69 250.3 1036.27 252.652 1046.99 254.22C1056.79 255.527 1064.5 257.748 1070.11 260.884C1075.86 264.02 1079.91 267.679 1082.27 271.86C1084.75 275.911 1085.99 280.288 1085.99 284.992C1085.99 291.133 1084.03 296.491 1080.11 301.064C1076.19 305.637 1071.03 309.165 1064.63 311.648C1058.22 314 1051.3 315.176 1043.85 315.176ZM1118.36 314C1116.66 314 1115.22 313.477 1114.04 312.432C1113 311.256 1112.48 309.819 1112.48 308.12V166.804C1112.48 164.975 1113 163.537 1114.04 162.492C1115.22 161.447 1116.66 160.924 1118.36 160.924C1120.19 160.924 1121.62 161.447 1122.67 162.492C1123.71 163.537 1124.24 164.975 1124.24 166.804V262.648L1185 207.376C1187.61 205.155 1190.09 205.285 1192.44 207.768C1194.93 210.512 1194.86 212.995 1192.25 215.216L1150.7 253.044L1193.42 305.376C1195.65 308.12 1195.38 310.668 1192.64 313.02C1189.9 315.372 1187.35 315.111 1185 312.236L1142.46 260.296L1124.24 276.956V308.12C1124.24 309.819 1123.71 311.256 1122.67 312.432C1121.62 313.477 1120.19 314 1118.36 314Z" fill="black"/>
</svg>
