<svg width="1300" height="512" viewBox="0 0 1300 512" fill="none" xmlns="http://www.w3.org/2000/svg">
<rect width="1300" height="512" rx="19" fill="#FCA311"/>
<path d="M138.096 326.176C131.301 326.176 124.18 324.935 116.732 322.452C109.284 319.969 103.077 315.788 98.112 309.908C97.0667 308.601 96.6093 307.229 96.74 305.792C97.0013 304.224 97.8507 302.917 99.288 301.872C100.595 300.957 101.967 300.631 103.404 300.892C104.972 301.153 106.213 301.872 107.128 303.048C110.917 307.491 115.491 310.627 120.848 312.456C126.336 314.155 132.281 315.004 138.684 315.004C149.66 315.004 157.435 313.044 162.008 309.124C166.581 305.204 168.868 300.631 168.868 295.404C168.868 285.081 158.872 278.483 138.88 275.608C125.813 273.779 116.144 270.251 109.872 265.024C103.6 259.797 100.464 253.721 100.464 246.796C100.464 236.996 103.992 229.548 111.048 224.452C118.235 219.225 127.316 216.612 138.292 216.612C147.177 216.612 154.691 218.245 160.832 221.512C166.973 224.648 171.939 228.895 175.728 234.252C176.773 235.559 177.1 236.996 176.708 238.564C176.447 240.001 175.467 241.177 173.768 242.092C172.461 242.745 171.089 242.941 169.652 242.68C168.215 242.419 166.973 241.635 165.928 240.328C159.264 231.835 149.921 227.588 137.9 227.588C129.668 227.588 123.265 229.352 118.692 232.88C114.119 236.408 111.832 240.655 111.832 245.62C111.832 250.716 114.053 254.897 118.496 258.164C122.939 261.3 130.517 263.652 141.232 265.22C151.032 266.527 158.741 268.748 164.36 271.884C170.109 275.02 174.16 278.679 176.512 282.86C178.995 286.911 180.236 291.288 180.236 295.992C180.236 302.133 178.276 307.491 174.356 312.064C170.436 316.637 165.275 320.165 158.872 322.648C152.469 325 145.544 326.176 138.096 326.176ZM212.602 325C210.903 325 209.466 324.477 208.29 323.432C207.245 322.256 206.722 320.819 206.722 319.12V223.668C206.722 221.839 207.245 220.401 208.29 219.356C209.466 218.311 210.903 217.788 212.602 217.788C214.431 217.788 215.869 218.311 216.914 219.356C217.959 220.401 218.482 221.839 218.482 223.668V231.312C222.141 226.608 226.583 222.949 231.81 220.336C237.167 217.723 242.982 216.416 249.254 216.416C256.963 216.416 263.823 218.311 269.834 222.1C275.845 225.759 280.549 230.855 283.946 237.388C287.474 230.855 292.374 225.759 298.646 222.1C304.918 218.311 311.974 216.416 319.814 216.416C327.785 216.416 334.775 218.376 340.786 222.296C346.797 226.216 351.501 231.639 354.898 238.564C358.426 245.489 360.19 253.46 360.19 262.476V319.12C360.19 320.819 359.667 322.256 358.622 323.432C357.577 324.477 356.139 325 354.31 325C352.611 325 351.174 324.477 349.998 323.432C348.953 322.256 348.43 320.819 348.43 319.12V262.476C348.43 252.415 345.751 244.183 340.394 237.78C335.167 231.377 328.307 228.176 319.814 228.176C310.798 228.176 303.415 231.181 297.666 237.192C292.047 243.072 289.369 251.043 289.63 261.104C289.63 261.496 289.63 261.953 289.63 262.476V319.12C289.63 320.819 289.107 322.256 288.062 323.432C287.017 324.477 285.579 325 283.75 325C282.051 325 280.614 324.477 279.438 323.432C278.393 322.256 277.87 320.819 277.87 319.12V262.476C277.87 252.415 275.191 244.183 269.834 237.78C264.607 231.377 257.747 228.176 249.254 228.176C240.238 228.176 232.855 231.051 227.106 236.8C221.357 242.549 218.482 249.997 218.482 259.144V319.12C218.482 320.819 217.959 322.256 216.914 323.432C215.869 324.477 214.431 325 212.602 325ZM442.535 326.176C432.081 326.176 422.673 323.824 414.311 319.12C406.079 314.285 399.545 307.752 394.711 299.52C390.007 291.157 387.655 281.815 387.655 271.492C387.655 261.039 390.007 251.696 394.711 243.464C399.545 235.101 406.079 228.568 414.311 223.864C422.673 219.029 432.081 216.612 442.535 216.612C452.988 216.612 462.331 219.029 470.563 223.864C478.795 228.568 485.263 235.101 489.967 243.464C494.801 251.696 497.219 261.039 497.219 271.492V319.12C497.219 320.819 496.696 322.256 495.651 323.432C494.605 324.477 493.168 325 491.339 325C489.64 325 488.203 324.477 487.027 323.432C485.981 322.256 485.459 320.819 485.459 319.12V303.832C481.147 310.627 475.267 316.049 467.819 320.1C460.371 324.151 451.943 326.176 442.535 326.176ZM442.535 315.2C450.767 315.2 458.084 313.305 464.487 309.516C471.02 305.596 476.116 300.369 479.775 293.836C483.564 287.172 485.459 279.724 485.459 271.492C485.459 263.129 483.564 255.681 479.775 249.148C476.116 242.484 471.02 237.257 464.487 233.468C458.084 229.548 450.767 227.588 442.535 227.588C434.433 227.588 427.116 229.548 420.583 233.468C414.049 237.257 408.888 242.484 405.099 249.148C401.309 255.681 399.415 263.129 399.415 271.492C399.415 279.724 401.309 287.172 405.099 293.836C408.888 300.369 414.049 305.596 420.583 309.516C427.116 313.305 434.433 315.2 442.535 315.2ZM532.442 325C530.743 325 529.306 324.477 528.13 323.432C527.085 322.256 526.562 320.819 526.562 319.12V223.668C526.562 221.839 527.085 220.401 528.13 219.356C529.306 218.311 530.743 217.788 532.442 217.788C534.271 217.788 535.709 218.311 536.754 219.356C537.799 220.401 538.322 221.839 538.322 223.668V235.82C542.111 229.809 546.881 225.105 552.63 221.708C558.51 218.311 564.978 216.612 572.034 216.612C576.999 216.612 580.854 217.2 583.598 218.376C586.342 219.552 587.387 221.643 586.734 224.648C586.342 226.608 585.427 227.784 583.99 228.176C582.553 228.568 580.789 228.633 578.698 228.372C576.738 227.98 574.517 227.784 572.034 227.784C565.501 227.784 559.686 229.156 554.59 231.9C549.494 234.644 545.509 238.433 542.634 243.268C539.759 247.972 538.322 253.395 538.322 259.536V319.12C538.322 320.819 537.799 322.256 536.754 323.432C535.709 324.477 534.271 325 532.442 325ZM656.407 325C649.221 324.869 642.818 323.236 637.199 320.1C631.581 316.833 627.203 312.391 624.067 306.772C620.931 301.023 619.363 294.555 619.363 287.368V232.292H604.075C602.507 232.292 601.201 231.835 600.155 230.92C599.241 229.875 598.783 228.568 598.783 227C598.783 225.432 599.241 224.191 600.155 223.276C601.201 222.231 602.507 221.708 604.075 221.708H619.363V189.76C619.363 187.931 619.886 186.493 620.931 185.448C622.107 184.272 623.545 183.684 625.243 183.684C627.073 183.684 628.51 184.272 629.555 185.448C630.731 186.493 631.319 187.931 631.319 189.76V221.708H657.191C658.759 221.708 660.001 222.231 660.915 223.276C661.961 224.191 662.483 225.432 662.483 227C662.483 228.568 661.961 229.875 660.915 230.92C660.001 231.835 658.759 232.292 657.191 232.292H631.319V287.368C631.319 294.947 633.671 301.153 638.375 305.988C643.079 310.692 649.155 313.044 656.603 313.044H660.915C662.745 313.044 664.182 313.632 665.227 314.808C666.403 315.853 666.991 317.291 666.991 319.12C666.991 320.819 666.403 322.256 665.227 323.432C664.182 324.477 662.745 325 660.915 325H656.407ZM697.434 325C695.735 325 694.298 324.477 693.122 323.432C692.077 322.256 691.554 320.819 691.554 319.12V223.668C691.554 221.839 692.077 220.401 693.122 219.356C694.298 218.311 695.735 217.788 697.434 217.788C699.263 217.788 700.701 218.311 701.746 219.356C702.791 220.401 703.314 221.839 703.314 223.668V231.312C706.973 226.608 711.415 222.949 716.642 220.336C721.999 217.723 727.814 216.416 734.086 216.416C741.795 216.416 748.655 218.311 754.666 222.1C760.677 225.759 765.381 230.855 768.778 237.388C772.306 230.855 777.206 225.759 783.478 222.1C789.75 218.311 796.806 216.416 804.646 216.416C812.617 216.416 819.607 218.376 825.618 222.296C831.629 226.216 836.333 231.639 839.73 238.564C843.258 245.489 845.022 253.46 845.022 262.476V319.12C845.022 320.819 844.499 322.256 843.454 323.432C842.409 324.477 840.971 325 839.142 325C837.443 325 836.006 324.477 834.83 323.432C833.785 322.256 833.262 320.819 833.262 319.12V262.476C833.262 252.415 830.583 244.183 825.226 237.78C819.999 231.377 813.139 228.176 804.646 228.176C795.63 228.176 788.247 231.181 782.498 237.192C776.879 243.072 774.201 251.043 774.462 261.104C774.462 261.496 774.462 261.953 774.462 262.476V319.12C774.462 320.819 773.939 322.256 772.894 323.432C771.849 324.477 770.411 325 768.582 325C766.883 325 765.446 324.477 764.27 323.432C763.225 322.256 762.702 320.819 762.702 319.12V262.476C762.702 252.415 760.023 244.183 754.666 237.78C749.439 231.377 742.579 228.176 734.086 228.176C725.07 228.176 717.687 231.051 711.938 236.8C706.189 242.549 703.314 249.997 703.314 259.144V319.12C703.314 320.819 702.791 322.256 701.746 323.432C700.701 324.477 699.263 325 697.434 325ZM927.367 326.176C916.913 326.176 907.505 323.824 899.143 319.12C890.911 314.285 884.377 307.752 879.543 299.52C874.839 291.157 872.487 281.815 872.487 271.492C872.487 261.039 874.839 251.696 879.543 243.464C884.377 235.101 890.911 228.568 899.143 223.864C907.505 219.029 916.913 216.612 927.367 216.612C937.82 216.612 947.163 219.029 955.395 223.864C963.627 228.568 970.095 235.101 974.799 243.464C979.633 251.696 982.051 261.039 982.051 271.492V319.12C982.051 320.819 981.528 322.256 980.483 323.432C979.437 324.477 978 325 976.171 325C974.472 325 973.035 324.477 971.859 323.432C970.813 322.256 970.291 320.819 970.291 319.12V303.832C965.979 310.627 960.099 316.049 952.651 320.1C945.203 324.151 936.775 326.176 927.367 326.176ZM927.367 315.2C935.599 315.2 942.916 313.305 949.319 309.516C955.852 305.596 960.948 300.369 964.607 293.836C968.396 287.172 970.291 279.724 970.291 271.492C970.291 263.129 968.396 255.681 964.607 249.148C960.948 242.484 955.852 237.257 949.319 233.468C942.916 229.548 935.599 227.588 927.367 227.588C919.265 227.588 911.948 229.548 905.415 233.468C898.881 237.257 893.72 242.484 889.931 249.148C886.141 255.681 884.247 263.129 884.247 271.492C884.247 279.724 886.141 287.172 889.931 293.836C893.72 300.369 898.881 305.596 905.415 309.516C911.948 313.305 919.265 315.2 927.367 315.2ZM1047.85 326.176C1041.06 326.176 1033.93 324.935 1026.49 322.452C1019.04 319.969 1012.83 315.788 1007.87 309.908C1006.82 308.601 1006.36 307.229 1006.49 305.792C1006.76 304.224 1007.6 302.917 1009.04 301.872C1010.35 300.957 1011.72 300.631 1013.16 300.892C1014.73 301.153 1015.97 301.872 1016.88 303.048C1020.67 307.491 1025.24 310.627 1030.6 312.456C1036.09 314.155 1042.04 315.004 1048.44 315.004C1059.41 315.004 1067.19 313.044 1071.76 309.124C1076.34 305.204 1078.62 300.631 1078.62 295.404C1078.62 285.081 1068.63 278.483 1048.63 275.608C1035.57 273.779 1025.9 270.251 1019.63 265.024C1013.35 259.797 1010.22 253.721 1010.22 246.796C1010.22 236.996 1013.75 229.548 1020.8 224.452C1027.99 219.225 1037.07 216.612 1048.05 216.612C1056.93 216.612 1064.44 218.245 1070.59 221.512C1076.73 224.648 1081.69 228.895 1085.48 234.252C1086.53 235.559 1086.85 236.996 1086.46 238.564C1086.2 240.001 1085.22 241.177 1083.52 242.092C1082.22 242.745 1080.84 242.941 1079.41 242.68C1077.97 242.419 1076.73 241.635 1075.68 240.328C1069.02 231.835 1059.68 227.588 1047.65 227.588C1039.42 227.588 1033.02 229.352 1028.45 232.88C1023.87 236.408 1021.59 240.655 1021.59 245.62C1021.59 250.716 1023.81 254.897 1028.25 258.164C1032.69 261.3 1040.27 263.652 1050.99 265.22C1060.79 266.527 1068.5 268.748 1074.11 271.884C1079.86 275.02 1083.91 278.679 1086.27 282.86C1088.75 286.911 1089.99 291.288 1089.99 295.992C1089.99 302.133 1088.03 307.491 1084.11 312.064C1080.19 316.637 1075.03 320.165 1068.63 322.648C1062.22 325 1055.3 326.176 1047.85 326.176ZM1122.36 325C1120.66 325 1119.22 324.477 1118.04 323.432C1117 322.256 1116.48 320.819 1116.48 319.12V177.804C1116.48 175.975 1117 174.537 1118.04 173.492C1119.22 172.447 1120.66 171.924 1122.36 171.924C1124.19 171.924 1125.62 172.447 1126.67 173.492C1127.71 174.537 1128.24 175.975 1128.24 177.804V273.648L1189 218.376C1191.61 216.155 1194.09 216.285 1196.44 218.768C1198.93 221.512 1198.86 223.995 1196.25 226.216L1154.7 264.044L1197.42 316.376C1199.65 319.12 1199.38 321.668 1196.64 324.02C1193.9 326.372 1191.35 326.111 1189 323.236L1146.46 271.296L1128.24 287.956V319.12C1128.24 320.819 1127.71 322.256 1126.67 323.432C1125.62 324.477 1124.19 325 1122.36 325Z" fill="#14213D"/>
</svg>
