<svg width="1300" height="512" viewBox="0 0 1300 512" fill="none" xmlns="http://www.w3.org/2000/svg">
<rect width="1300" height="512" rx="19" fill="#14213D"/>
<path d="M138.096 318.176C131.301 318.176 124.18 316.935 116.732 314.452C109.284 311.969 103.077 307.788 98.112 301.908C97.0667 300.601 96.6093 299.229 96.74 297.792C97.0013 296.224 97.8507 294.917 99.288 293.872C100.595 292.957 101.967 292.631 103.404 292.892C104.972 293.153 106.213 293.872 107.128 295.048C110.917 299.491 115.491 302.627 120.848 304.456C126.336 306.155 132.281 307.004 138.684 307.004C149.66 307.004 157.435 305.044 162.008 301.124C166.581 297.204 168.868 292.631 168.868 287.404C168.868 277.081 158.872 270.483 138.88 267.608C125.813 265.779 116.144 262.251 109.872 257.024C103.6 251.797 100.464 245.721 100.464 238.796C100.464 228.996 103.992 221.548 111.048 216.452C118.235 211.225 127.316 208.612 138.292 208.612C147.177 208.612 154.691 210.245 160.832 213.512C166.973 216.648 171.939 220.895 175.728 226.252C176.773 227.559 177.1 228.996 176.708 230.564C176.447 232.001 175.467 233.177 173.768 234.092C172.461 234.745 171.089 234.941 169.652 234.68C168.215 234.419 166.973 233.635 165.928 232.328C159.264 223.835 149.921 219.588 137.9 219.588C129.668 219.588 123.265 221.352 118.692 224.88C114.119 228.408 111.832 232.655 111.832 237.62C111.832 242.716 114.053 246.897 118.496 250.164C122.939 253.3 130.517 255.652 141.232 257.22C151.032 258.527 158.741 260.748 164.36 263.884C170.109 267.02 174.16 270.679 176.512 274.86C178.995 278.911 180.236 283.288 180.236 287.992C180.236 294.133 178.276 299.491 174.356 304.064C170.436 308.637 165.275 312.165 158.872 314.648C152.469 317 145.544 318.176 138.096 318.176ZM212.602 317C210.903 317 209.466 316.477 208.29 315.432C207.245 314.256 206.722 312.819 206.722 311.12V215.668C206.722 213.839 207.245 212.401 208.29 211.356C209.466 210.311 210.903 209.788 212.602 209.788C214.431 209.788 215.869 210.311 216.914 211.356C217.959 212.401 218.482 213.839 218.482 215.668V223.312C222.141 218.608 226.583 214.949 231.81 212.336C237.167 209.723 242.982 208.416 249.254 208.416C256.963 208.416 263.823 210.311 269.834 214.1C275.845 217.759 280.549 222.855 283.946 229.388C287.474 222.855 292.374 217.759 298.646 214.1C304.918 210.311 311.974 208.416 319.814 208.416C327.785 208.416 334.775 210.376 340.786 214.296C346.797 218.216 351.501 223.639 354.898 230.564C358.426 237.489 360.19 245.46 360.19 254.476V311.12C360.19 312.819 359.667 314.256 358.622 315.432C357.577 316.477 356.139 317 354.31 317C352.611 317 351.174 316.477 349.998 315.432C348.953 314.256 348.43 312.819 348.43 311.12V254.476C348.43 244.415 345.751 236.183 340.394 229.78C335.167 223.377 328.307 220.176 319.814 220.176C310.798 220.176 303.415 223.181 297.666 229.192C292.047 235.072 289.369 243.043 289.63 253.104C289.63 253.496 289.63 253.953 289.63 254.476V311.12C289.63 312.819 289.107 314.256 288.062 315.432C287.017 316.477 285.579 317 283.75 317C282.051 317 280.614 316.477 279.438 315.432C278.393 314.256 277.87 312.819 277.87 311.12V254.476C277.87 244.415 275.191 236.183 269.834 229.78C264.607 223.377 257.747 220.176 249.254 220.176C240.238 220.176 232.855 223.051 227.106 228.8C221.357 234.549 218.482 241.997 218.482 251.144V311.12C218.482 312.819 217.959 314.256 216.914 315.432C215.869 316.477 214.431 317 212.602 317ZM442.535 318.176C432.081 318.176 422.673 315.824 414.311 311.12C406.079 306.285 399.545 299.752 394.711 291.52C390.007 283.157 387.655 273.815 387.655 263.492C387.655 253.039 390.007 243.696 394.711 235.464C399.545 227.101 406.079 220.568 414.311 215.864C422.673 211.029 432.081 208.612 442.535 208.612C452.988 208.612 462.331 211.029 470.563 215.864C478.795 220.568 485.263 227.101 489.967 235.464C494.801 243.696 497.219 253.039 497.219 263.492V311.12C497.219 312.819 496.696 314.256 495.651 315.432C494.605 316.477 493.168 317 491.339 317C489.64 317 488.203 316.477 487.027 315.432C485.981 314.256 485.459 312.819 485.459 311.12V295.832C481.147 302.627 475.267 308.049 467.819 312.1C460.371 316.151 451.943 318.176 442.535 318.176ZM442.535 307.2C450.767 307.2 458.084 305.305 464.487 301.516C471.02 297.596 476.116 292.369 479.775 285.836C483.564 279.172 485.459 271.724 485.459 263.492C485.459 255.129 483.564 247.681 479.775 241.148C476.116 234.484 471.02 229.257 464.487 225.468C458.084 221.548 450.767 219.588 442.535 219.588C434.433 219.588 427.116 221.548 420.583 225.468C414.049 229.257 408.888 234.484 405.099 241.148C401.309 247.681 399.415 255.129 399.415 263.492C399.415 271.724 401.309 279.172 405.099 285.836C408.888 292.369 414.049 297.596 420.583 301.516C427.116 305.305 434.433 307.2 442.535 307.2ZM532.442 317C530.743 317 529.306 316.477 528.13 315.432C527.085 314.256 526.562 312.819 526.562 311.12V215.668C526.562 213.839 527.085 212.401 528.13 211.356C529.306 210.311 530.743 209.788 532.442 209.788C534.271 209.788 535.709 210.311 536.754 211.356C537.799 212.401 538.322 213.839 538.322 215.668V227.82C542.111 221.809 546.881 217.105 552.63 213.708C558.51 210.311 564.978 208.612 572.034 208.612C576.999 208.612 580.854 209.2 583.598 210.376C586.342 211.552 587.387 213.643 586.734 216.648C586.342 218.608 585.427 219.784 583.99 220.176C582.553 220.568 580.789 220.633 578.698 220.372C576.738 219.98 574.517 219.784 572.034 219.784C565.501 219.784 559.686 221.156 554.59 223.9C549.494 226.644 545.509 230.433 542.634 235.268C539.759 239.972 538.322 245.395 538.322 251.536V311.12C538.322 312.819 537.799 314.256 536.754 315.432C535.709 316.477 534.271 317 532.442 317ZM656.407 317C649.221 316.869 642.818 315.236 637.199 312.1C631.581 308.833 627.203 304.391 624.067 298.772C620.931 293.023 619.363 286.555 619.363 279.368V224.292H604.075C602.507 224.292 601.201 223.835 600.155 222.92C599.241 221.875 598.783 220.568 598.783 219C598.783 217.432 599.241 216.191 600.155 215.276C601.201 214.231 602.507 213.708 604.075 213.708H619.363V181.76C619.363 179.931 619.886 178.493 620.931 177.448C622.107 176.272 623.545 175.684 625.243 175.684C627.073 175.684 628.51 176.272 629.555 177.448C630.731 178.493 631.319 179.931 631.319 181.76V213.708H657.191C658.759 213.708 660.001 214.231 660.915 215.276C661.961 216.191 662.483 217.432 662.483 219C662.483 220.568 661.961 221.875 660.915 222.92C660.001 223.835 658.759 224.292 657.191 224.292H631.319V279.368C631.319 286.947 633.671 293.153 638.375 297.988C643.079 302.692 649.155 305.044 656.603 305.044H660.915C662.745 305.044 664.182 305.632 665.227 306.808C666.403 307.853 666.991 309.291 666.991 311.12C666.991 312.819 666.403 314.256 665.227 315.432C664.182 316.477 662.745 317 660.915 317H656.407ZM697.434 317C695.735 317 694.298 316.477 693.122 315.432C692.077 314.256 691.554 312.819 691.554 311.12V215.668C691.554 213.839 692.077 212.401 693.122 211.356C694.298 210.311 695.735 209.788 697.434 209.788C699.263 209.788 700.701 210.311 701.746 211.356C702.791 212.401 703.314 213.839 703.314 215.668V223.312C706.973 218.608 711.415 214.949 716.642 212.336C721.999 209.723 727.814 208.416 734.086 208.416C741.795 208.416 748.655 210.311 754.666 214.1C760.677 217.759 765.381 222.855 768.778 229.388C772.306 222.855 777.206 217.759 783.478 214.1C789.75 210.311 796.806 208.416 804.646 208.416C812.617 208.416 819.607 210.376 825.618 214.296C831.629 218.216 836.333 223.639 839.73 230.564C843.258 237.489 845.022 245.46 845.022 254.476V311.12C845.022 312.819 844.499 314.256 843.454 315.432C842.409 316.477 840.971 317 839.142 317C837.443 317 836.006 316.477 834.83 315.432C833.785 314.256 833.262 312.819 833.262 311.12V254.476C833.262 244.415 830.583 236.183 825.226 229.78C819.999 223.377 813.139 220.176 804.646 220.176C795.63 220.176 788.247 223.181 782.498 229.192C776.879 235.072 774.201 243.043 774.462 253.104C774.462 253.496 774.462 253.953 774.462 254.476V311.12C774.462 312.819 773.939 314.256 772.894 315.432C771.849 316.477 770.411 317 768.582 317C766.883 317 765.446 316.477 764.27 315.432C763.225 314.256 762.702 312.819 762.702 311.12V254.476C762.702 244.415 760.023 236.183 754.666 229.78C749.439 223.377 742.579 220.176 734.086 220.176C725.07 220.176 717.687 223.051 711.938 228.8C706.189 234.549 703.314 241.997 703.314 251.144V311.12C703.314 312.819 702.791 314.256 701.746 315.432C700.701 316.477 699.263 317 697.434 317ZM927.367 318.176C916.913 318.176 907.505 315.824 899.143 311.12C890.911 306.285 884.377 299.752 879.543 291.52C874.839 283.157 872.487 273.815 872.487 263.492C872.487 253.039 874.839 243.696 879.543 235.464C884.377 227.101 890.911 220.568 899.143 215.864C907.505 211.029 916.913 208.612 927.367 208.612C937.82 208.612 947.163 211.029 955.395 215.864C963.627 220.568 970.095 227.101 974.799 235.464C979.633 243.696 982.051 253.039 982.051 263.492V311.12C982.051 312.819 981.528 314.256 980.483 315.432C979.437 316.477 978 317 976.171 317C974.472 317 973.035 316.477 971.859 315.432C970.813 314.256 970.291 312.819 970.291 311.12V295.832C965.979 302.627 960.099 308.049 952.651 312.1C945.203 316.151 936.775 318.176 927.367 318.176ZM927.367 307.2C935.599 307.2 942.916 305.305 949.319 301.516C955.852 297.596 960.948 292.369 964.607 285.836C968.396 279.172 970.291 271.724 970.291 263.492C970.291 255.129 968.396 247.681 964.607 241.148C960.948 234.484 955.852 229.257 949.319 225.468C942.916 221.548 935.599 219.588 927.367 219.588C919.265 219.588 911.948 221.548 905.415 225.468C898.881 229.257 893.72 234.484 889.931 241.148C886.141 247.681 884.247 255.129 884.247 263.492C884.247 271.724 886.141 279.172 889.931 285.836C893.72 292.369 898.881 297.596 905.415 301.516C911.948 305.305 919.265 307.2 927.367 307.2ZM1047.85 318.176C1041.06 318.176 1033.93 316.935 1026.49 314.452C1019.04 311.969 1012.83 307.788 1007.87 301.908C1006.82 300.601 1006.36 299.229 1006.49 297.792C1006.76 296.224 1007.6 294.917 1009.04 293.872C1010.35 292.957 1011.72 292.631 1013.16 292.892C1014.73 293.153 1015.97 293.872 1016.88 295.048C1020.67 299.491 1025.24 302.627 1030.6 304.456C1036.09 306.155 1042.04 307.004 1048.44 307.004C1059.41 307.004 1067.19 305.044 1071.76 301.124C1076.34 297.204 1078.62 292.631 1078.62 287.404C1078.62 277.081 1068.63 270.483 1048.63 267.608C1035.57 265.779 1025.9 262.251 1019.63 257.024C1013.35 251.797 1010.22 245.721 1010.22 238.796C1010.22 228.996 1013.75 221.548 1020.8 216.452C1027.99 211.225 1037.07 208.612 1048.05 208.612C1056.93 208.612 1064.44 210.245 1070.59 213.512C1076.73 216.648 1081.69 220.895 1085.48 226.252C1086.53 227.559 1086.85 228.996 1086.46 230.564C1086.2 232.001 1085.22 233.177 1083.52 234.092C1082.22 234.745 1080.84 234.941 1079.41 234.68C1077.97 234.419 1076.73 233.635 1075.68 232.328C1069.02 223.835 1059.68 219.588 1047.65 219.588C1039.42 219.588 1033.02 221.352 1028.45 224.88C1023.87 228.408 1021.59 232.655 1021.59 237.62C1021.59 242.716 1023.81 246.897 1028.25 250.164C1032.69 253.3 1040.27 255.652 1050.99 257.22C1060.79 258.527 1068.5 260.748 1074.11 263.884C1079.86 267.02 1083.91 270.679 1086.27 274.86C1088.75 278.911 1089.99 283.288 1089.99 287.992C1089.99 294.133 1088.03 299.491 1084.11 304.064C1080.19 308.637 1075.03 312.165 1068.63 314.648C1062.22 317 1055.3 318.176 1047.85 318.176ZM1122.36 317C1120.66 317 1119.22 316.477 1118.04 315.432C1117 314.256 1116.48 312.819 1116.48 311.12V169.804C1116.48 167.975 1117 166.537 1118.04 165.492C1119.22 164.447 1120.66 163.924 1122.36 163.924C1124.19 163.924 1125.62 164.447 1126.67 165.492C1127.71 166.537 1128.24 167.975 1128.24 169.804V265.648L1189 210.376C1191.61 208.155 1194.09 208.285 1196.44 210.768C1198.93 213.512 1198.86 215.995 1196.25 218.216L1154.7 256.044L1197.42 308.376C1199.65 311.12 1199.38 313.668 1196.64 316.02C1193.9 318.372 1191.35 318.111 1189 315.236L1146.46 263.296L1128.24 279.956V311.12C1128.24 312.819 1127.71 314.256 1126.67 315.432C1125.62 316.477 1124.19 317 1122.36 317Z" fill="white"/>
</svg>
